<?xml version="1.0" standalone="no"?>
<!DOCTYPE svg PUBLIC "-//W3C//DTD SVG 1.1//EN" "http://www.w3.org/Graphics/SVG/1.1/DTD/svg11.dtd" >
<svg xmlns="http://www.w3.org/2000/svg">
<metadata>Generated by IcoMoon</metadata>
<defs>
<font id="icomoon" horiz-adv-x="1024">
<font-face units-per-em="1024" ascent="960" descent="-64" />
<missing-glyph horiz-adv-x="1024" />
<glyph unicode="&#x20;" horiz-adv-x="512" d="" />
<glyph unicode="&#xe600;" glyph-name="minutes" d="M830.6 758.6c-54 4-108.2 7.6-162.2 8.2-87.6 1-175.2-0.4-262.8-0.8-42.2-0.2-84.6 1.6-126.8-0.4-16.2-0.8-33.2-6.6-47.6-14.4-13.2-7.2-16-21.6-17.4-38-1.6-20 8-30.6 20-41.6 10.4-9.6 22.8-17.6 32.2-28 22.4-24.8 42.6-51.4 65.4-75.8 35.8-38.2 73-75 110-112 9-8.8 10.4-14.2-1.8-21.4-14.8-8.8-28.2-19.6-42.4-29.4-40.2-28.6-80-57.6-121-85.4-39.6-26.8-81.2-50.8-120-78.4-45.8-32.6-30.4-79.8 2-98.8 16.4-9.6 38.6-14.6 57.8-13.2 36.6 2.4 73 9.6 109 16.8 99.8 20.4 201 25 302.6 27.4 67 1.6 133.2-16.6 200.2-5.8 9.2 1.4 19.2 12.4 24.4 21.4 3.8 6.8 3.8 20.4-0.6 26-11.8 15.2-27 27.8-40.6 41.6-10.6 10.6-20 23.4-32.2 31.8-26.8 18.6-55.6 34.2-82.4 53-41.6 29.4-82.2 60.4-126.8 93.4 15.2 10.8 25.8 18.8 37 26.4 54.2 36.6 108.4 73 162.8 109.2 34.6 23 70.8 43.6 103.6 68.6 12 9.2 21.8 27.8 23.2 42.8 3.6 36-35.6 74.4-65.6 76.8zM441.8 349.4c0 0 17.4 15.4 34.8 30.8 30.6 27 32 27.6 60-1.4 14.2-14.8 14.2-14.6 28-29.8 24.4-26.6-122.8 0.4-122.8 0.4zM764 656.2c-69.2-57.8-135.8-96.2-205.2-153.8-37.8-31.4-39.4-32.2-74 1.8-48.2 47.4-94.6 96.6-141.2 145.4-8 8.4-24 30.6-32.6 43.4 161.2 35.4 327.8 12.2 487 9 2-2.8 4.8-10.4 6.8-13.2-13.8-10.8-27.6-21.4-40.8-32.6z" />
<glyph unicode="&#xe601;" glyph-name="chapter" d="M246.4 468.2c0 2.6 0 5.2 0 7.8-0.6 0-1.2 0-1.8 0-1.4-25.4-3.2-50.8-4-76.4-0.2-12.6 2.2-25 2.8-37.4 0.4-7.8 0.2-15.8-0.6-23.4-1.4-14.4 0.4-18.4 12.6-21 46.6-10.4 90.6-29 133.2-51.4 23.4-12.2 44.6-28 64-47 16-15.8 18.4-14.6 36.6-2.2 28.4 19.2 57.4 37.4 87.2 53.8 62 34 127.2 59.4 194 80.4 9 2.8 14.8 7 15.6 19 3.4 46.8 9.8 93.2 11.4 140 2 56.6 0.6 113 0.2 169.8-0.2 15.8-0.8 15.4-14.8 16.2-63 3.2-122.6-11.6-179.6-40.4-20.4-10.2-40.8-20.4-60.6-31.8-12.8-7.6-24.4-17.6-36.4-26.8-22.6-17.2-46.4-13.8-69-2.4-28.4 14.2-55.4 32.4-83.6 47-14 7.2-29.6 11-44.6 15.6-13.4 4.2-24.8 9.6-28 26.8-3.4 18 9 37.6 25.4 40.8 22.2 4.2 40.8-7.4 60-15 33.8-13.2 67.2-28.2 100.6-43 13.8-6 26-2.4 38.2 4.2 44.4 23 89 45.4 133.2 69.2 46.4 25.2 95 35.8 146.6 29 9.8-1.4 20-1.8 29.4-4.4 9.2-2.6 18.8-6 26.4-12 10.8-8.2 16-19.4 15-35.8-2.6-44.6-3.2-89.4-4.2-134.2-1-49.8 3.6-99 9.6-148 2.8-23 6.4-46.4 4.8-69.2-0.8-12.2-4.2-25.8-13.6-37.6-13.2-16.6-28.6-19-46.2-20-37.4-2.4-72.4-15.4-106.2-31-33.4-15-65.6-33-97.8-51.4-24.4-14-45-34-63.6-56.6-14.6-17.8-28.8-36.4-51.6-43.2-24-7-42.4-0.4-55.6 18.6-28.8 41.4-66.8 68-111.8 84.6-35.2 13-70.4 14.4-106.8 11.6-11.6-0.8-24 2.6-35.6 6-9.6 2.8-18.8 23.2-17.8 35.2 2.2 25.4 6.4 50.8 6.4 76-0.2 44.2-3.2 88.4-5 132.6-0.6 15.4-6.8 30.4-1.4 46.4 5.4 16.4 11.6 25.6 31.4 31.2 16.2 4.6 28.8-2.2 43.2-7.6 20.6-7.8 42.4-11.6 63.6-17.6 23.4-6.4 47-13 70.4-20.4 24.6-7.6 49-16 73.2-24.8 10.2-3.6 19.8-9 30-12.4 3.8-1.4 9.4-0.6 13 1.8 49.4 31.8 98.8 63.4 152.6 85.2 28.8 11.6 58.8 13.4 89 8.2 3.6-0.6 7-2.4 10.4-4.2 12.2-7.2 12.6-22 0.2-28.8-8.6-4.6-18.4-7.4-27.8-8.4-51.6-5.4-97-29.6-141.6-56-23.4-13.8-44.2-30.8-62.2-52.2-3-3.6-4.4-7.8-8.6-11.2-20.2-17.4-40.8-14-61.8-3.6-27.6 13.6-54.6 29.4-83.2 40.6-29.4 11.6-60 19.2-90.4 27.8-10.8 3.6-12 1.2-14.4-16.6z" />
<glyph unicode="&#xe602;" glyph-name="clout" d="M827.2 649.6c-0.8 5.8-0.6 14.4-3.6 21.4-6.4 15.2-19.2 22.6-35.6 22.8-19.4 0.4-38.8-0.6-57.8 1.2-19.6 1.8-39.4 5-58.4 10.2-12.8 3.6-25 11.2-36.6 18.4-12 7.4-24.4 15.2-34 25.4-13 13.6-24.2 29-34.8 44.6-15.4 22.6-49.2 23.4-68 11.8-7.8-4.8-14-12.2-21.4-17.8-13.4-10.2-27.2-19.8-41-29.6-23.6-16.6-47.4-32.4-75.6-40.2-37.6-10.4-75.2-21.2-114.8-19.6-5.4 0.2-10.6 3.6-15.8 5.4-6.4 2.4-12.4 5.2-18.8 7.2-1.2 0.4-3.4-1-4.8-2.2-8.2-7.8-10.2-17.2-8.4-28.2 2.2-13.4 5-27 4.8-40.6-0.8-43.4-3.4-127.6-4.6-171-1.4-48.8 6.4-95.6 28-140 16.2-33.8 37-64.6 64-90 32.4-30.6 66.2-59.4 106.2-80.6 32.4-17.2 64-36.6 88.4-65.6 10.4-12.2 22.6-10.8 33.6-4.8 12.8 7 24.6 16.2 37 24.2 7.6 5 15.4 9.8 23.4 14.2 13.4 7.2 27.4 13.6 40.6 21.2 33.8 19 61.6 45.4 88.8 72.4 35.2 35.2 67 73.2 89.4 118.6 16.8 34.2 28.6 69.4 28.6 107.8 0 36.8-1 114.2-0.8 150.8-0.6 16.8 1 33.6 2 52.6zM758.4 433.4c-0.4-35.2-12.8-67.2-30.6-96.6-12.8-21.2-26.6-42.6-43-60.8-28.6-31.6-59-62.2-96.2-83.4-22.2-12.8-46.4-22.4-69.8-33-9.4-4.2-17.2-2.4-26.2 4-24.2 17.2-49 33.6-74.6 48.2-34.6 20-66.2 43.8-94.8 71.6-31 30.2-47.6 68-55 110.4-9.2 52.4-4 146.2-8.2 198.8-1.8 22.8-2.8 45.8-4.2 69 14.4-1.4 29-4.2 43.4-3.6 20.2 0.8 40.4 3 60.2 7.2 24 5.2 48 11.4 70.6 20.4 17.4 7 33 18.6 49 28.6 11.6 7.2 22.6 15.6 34.2 23 2 1.4 7.4 0.6 9.2-1.2 27.8-29 59.8-51.4 95.6-69.8 30.2-15.6 62.2-21 95.2-24.8 9.8-1.2 19.6-1.8 29.2-4 3.2-0.6 7.4-5 7.6-8 1.4-14.4 1-29 2.2-43.6 1.2-14.2 4-28 5.6-42.2 0.8-7.4 0.4-14.8 0.6-22.4-0.4-15.6 0.2-72 0-87.8zM671 393c-9 6.2-19 6-28.2-0.8-5.2-3.8-10-8-14.8-12.2-1 0.6-2.2 1-3.2 1.6 10 23.6 19.4 47.6 29.8 71 8.6 19.2 18.8 37.8 22 59.2 1.6 11.2-5 22.2-15.4 26-13.2 4.8-23.4-2.4-32-9.8-19-16.4-36.8-34.4-55.4-51.4-31.4-29-62.8-58-94.2-87-3.4-3-7.2-5.4-10.8-8.2-1 0.8-2 1.6-2.8 2.4 6.8 16 12.6 32.4 20.6 47.8 17.4 33.8 36.4 66.8 53.8 100.6 6.8 13.2 13.2 26.6 13.8 42.4 0.6 15-15.8 31.8-31.4 25-12.2-5.2-24.8-10.8-35-18.8-21.8-17-42.2-35.6-63.2-53.6-4.6-3.8-9-7.8-14.4-12.4 4 14 8 26.4 10.8 39.2 3.6 15.4-1.8 27.6-13.8 34-10.2 5.6-20.8 4.2-29.4-1.8-17.4-12.4-34-26.2-50.8-39.4-9.4-7.4-14.6-16.4-11.8-28.2 15.8-12.6 28.8-1.4 44.2 6.8-4.6-16.2-8.8-29.4-12-43-3.8-16-7-32.2-9.6-48.4-1-5.8 0-12 9-9 1 0.4 3.2 0.4 3.6 0 5-7.8 12.4-4.6 19.4-5.2 8.6-0.6 15 2 20.6 7.4 5.4 5.4 10.4 11.2 15.4 17.2 18.6 22 36.4 44.6 55.6 66.2 9.8 11.2 21.6 20.4 32.4 30.6l2.2-1.8c-0.8-3.2-1.2-6.6-2.6-9.4-5.6-13-11.4-25.8-17-38.8-16.6-38.8-33.4-77.4-49.2-116.4-5.2-12.6-8-26.4-11-39.8-2-9.6 1.6-13.6 10.4-16 18.2-5 33.4 0 46.6 12.8 22.6 22 45.2 44 67.6 66.4 19.4 19.2 38.4 39 57.8 58.2 6.4 6.4 13 12.2 19.6 18.2 1.6-3.4 1.4-5.6 0.8-7.4-9-25.8-18.8-51.4-27-77.4-6.4-20-11.4-40.6-15.8-61.2-1-4.8 2.2-14.2 5.6-15.4 11.8-3.8 25.2-7.6 36.2 0.6 17.2 12.6 34 26.2 49.2 41 6.2 6 9 16.6 11.2 25.4 0.2 3.8-3.8 10.4-7.4 12.8z" />
<glyph unicode="&#xe603;" glyph-name="added-perks" d="M785.4 513.4c-3.4-6.2-0.2-12.6-14.4-22.6-28.6-20.2-73.2-52.2-106.4-73-5.8-3.6-8.8-7-5.4-15.6 20.6-52.2 57-116.6 77.8-168.8 4.2-10.6 21.6-72.8-0.6-85.8-14.6-8.4-71.8 13.2-87.4 27-35.2 30.8-74.6 50.4-115.4 66.8-7.2 2.8-14.4 5.6-21.4 9-28.8 13.4-53.6 4.6-77.6-17-32.6-29.2-95.2-132.8-136.4-128s-27.8 187.2-13.4 246c4.4 18 8.8 31.6-5.6 36.2-25.6 8.2-51.6 17.2-76.8 26.2-19.6 7-42.6 19.6-40.4 42.2 1 10-5.4 24.8 7.2 31.8 1 0.6-0.4 6.2 0.6 8.2 12.6 22.2 34 24.4 52.6 32.6 46.6 20.4 107.8 31.4 154.4 51.6 3.4 1.6 7.2 4.6 9.4 8 18.4 29.8 22.6 68.2 40 98.6 11 19 19.8 39.6 30.4 58.8 6 10.6 13.6 19.8 21 29 4 5 8.8 10.8 14 12.4 8.6 2.6 18 3.4 26.8 2.8s15.2-4 19.2-17.6c14.6-48.8 31.2-96.6 48-144.4 5.8-16.2 16.2-26.2 32.2-29.6 47.2-10.2 200.2-21 216.2-16.4 3.2 1 7.8 1.4 11.6-0.2 2.8-1.2 4.8-5.4 9.2-11 14 1 9.2-14-2.4-20.6-28-16-197.4-14-214.8-12.4-17.4 1.8-64-7.4-82.6 24.2-13.8 23.8-38 106.4-43.6 130.8-9.4-18.4-16-22-23-38.8-14.6-35.6-27-54-40.6-90.2-6.2-16.6-16.4-26.2-30.8-30.4-13-3.8-26.4-6.8-39-12.4-23.4-10.6-106-46.6-127.4-57.4 16.8-11.2 74-17.2 88.8-30.2 21-18.2 17.2-34.4 13.2-61.4s-20.4-157-20.4-163c22.2 25.6 50.4 60.2 71.4 83.2 12 13.4 56 45 73 49.2 12.8 3.2 47.6-17.8 63.4-26.2 27-14.4 126-75.6 126.8-74.6-15.4 27.6-45.4 84.6-60.8 112.2-11 19.6-20.2 40.4-21.6 64.4-0.6 12-5.6 27.4 9 31.8-1 4.4 6.8 14.2 10.2 17 7.6 6.4 33.8 9.6 37.6 11.8 8.4 4.8 72.4 29.4 116.2 37.8 26.4 6 32 5 28-2z" />
<glyph unicode="&#xe604;" glyph-name="advanced-practice" d="M719 288.8c-3-6.4-4.6-14.4-9.2-18.8-4.8-5-12-9-18.4-9.4-15.6-1-31.6-0.4-47.2 0.8-22.6 1.8-45.8 1.4-67.4 7.8-16.6 5-32.2 17.6-46.4 29.6-12.8 11-11.4 27.2 0.4 41.2 15.6 18.2 35.6 18.8 56 19 10 0 20 0 30 0 0.6 1.8 1.2 3.6 1.8 5.2-15.2 14.4-30.2 29.4-46 43-8.4 7.2-18 12.6-27.6 17.4-20.4 10.4-37.6 3.4-51.6-15-43.4-57.4-86.8-115-130-172.6-0.8-1.2-1.2-2.8-3-7.6 14 0 26.4-0.2 38.8 0 74.2 1.4 148.6 2 222.8 4.8 59.4 2.2 118.6 8 176.8 22.4 12.4 3.2 25 6.6 39.2 10.2-2.2 4-3.4 7-5.2 9.4-37.6 51.8-74.4 104.4-113.2 155-45.8 59.8-92.4 118.8-140.6 176-16.2 19.2-37.6 33-57.8 47.2-13.6 9.4-26.6 5.4-37.8-7.8-26.2-31.2-53.6-61.4-78-94.2-24.8-33.4-46.6-69.8-70-104.6-17.4-26-35-51.8-53.2-77-23.8-32.8-48.8-64.8-72.6-97.6-8.4-11.4-14.6-24.8-22.4-36.8-17-26-34.6-51.6-51.8-77.2-0.2-0.4-0.6-0.6-0.8-1-3.4-6.8-6-18.8-14.4-13.2-5 3.4-8.6 17.4-6.4 24.2 5.8 18.4 13.4 36.6 23 52.8 22.6 38.6 46.4 76.4 70.8 113.8 28.6 44 58.2 87 87.2 130.8 27.8 42 54.6 84.8 82.6 126.4 20.8 30.6 43 60 64.4 90 11.6 16.4 22.4 33.6 34 49.8 17.8 25 57.6 25.2 78.2 2.6 18.6-20.6 36.6-42.2 53-65 57.2-79 113.4-158.8 170.6-238 23-32 47-63.2 71-94.2 16.2-21 34.4-40 50-61.4 23.6-32.4 13.4-76.6-20.4-94.4-13.6-7.2-26.2-14.4-43-12.8-21 2-42.6-2.6-63.8-2.6-12.6 0-25.2 4.6-38 4.6-32.2 0.4-64.4-0.8-96.6-1-22.8-0.2-45.4 0.6-68.2 0.6-27.8-0.2-55.4-1-83.2-1.4-30-0.4-59.8-0.6-89.8-1.2-18.8-0.4-37.8-1-56.6-2.2-6.4-0.4-12.6-3-18.8-4-8.4-1.4-17.2-1-25-4-13-5.2-13.6 10-19 14.8-21.6 19.8-16.8 53.4 0.4 71.4 23 23.6 45.6 47.6 67.8 72.4 40.6 45.2 82.4 89 116.6 141 10.4 15.8 20.2 32.2 31.6 47 19.2 24.4 53 28.2 76.8 7 22.6-20 43.8-42.2 64.4-64.8 21.4-23.6 41-49.2 61.6-73.6 8.6-10 18-19.2 26.4-29.2 12.4-14.6 5.2-31.6 3.2-47.6-0.2-2.4-5-4-7.6-6 0.4-0.4 1-1.2 1.6-2z" />
<glyph unicode="&#xe605;" glyph-name="advisory-teams" d="M937.6 549c11.2 43.2 7.4 83.8-30.6 117-20.6 18-42.2 28-68.2 30-9.8 0.8-19.6-1.2-29.4-1-4.6 0-10.2 0.6-13.6 3.2-12.2 9.2-24.4 11.6-34.2 0.8-16.4-18-35-36.4-44.2-58-10.6-24.8-14.4-53.2-16.8-80.4-3.8-42.4 8-80.2 43.2-108 2-1.6 3.4-4.2 6.2-7.8-73-15.6-131.4-80-181.4-135-1.6 6.2-4.4 35.2-5 38.6-4.6 29-1.8 56.2-8.4 84.6-7 29.8-34.4 60.6-76.4 42.6-41.8-17.8-76.4-44.8-107.4-76.6-22.6-23.2-51.4-66.4-70.2-97.6-0.8 5.6-2.8 38-3.2 41.8-3.4 22.4-1.8 40-6.8 62-8.4 37-46 60.4-81.2 30.4-18.6-15.8-37.2-32.8-51-52.6-21.8-31.6-40.8-65.2-58.6-99.4-13-24.8-23.6-51.6-18.2-81 1.2-6.4 7-17.2 10-17 7.4 0.6 14.6 6 21.2 10.2 2 1.4 2.6 5.2 3.8 7.8 10 22.6 18.8 45.8 30.2 67.6 16.2 31.6 32.4 63.4 61.4 86.2 10.4 8.2 15.8 7 18.2-5.6 3.4-19.4 8.4-32.8 10-52.4 2.4-28.6-0.6-49 14.8-76.2 6.8-12.4 22.4-23 42.6-14.8 20.4 8.4 27 29.8 36 47.6 20.6 40.2 47.6 59.4 78.4 92.4 15.6 16.6 35.8 29 54.6 42.4 10.6 7.4 18.6 4.4 24-8.4 13.4-31.4 12.2-64.2 14-97.2 1.2-19.2 5.2-38.4 9.4-57.2 2.2-9.6 24.6-22.8 33.6-20.6 16 3.8 31.8 8 41.8 23.4 7.2 11 16.2 21 24.2 31.6 24.6 32 47.4 66 82.8 87.6 24.6 15 51 26.6 80.8 25.2 14.6-0.6 25.8-5.8 34.8-19.4 17.6-26.8 23.6-57.2 31.8-87 3.2-11.8 5.2-24 7.6-36 5.8-29 10.8-58 17.6-86.8 1-4.6 9.2-7.6 14.2-11.2 1.6 3.6 3 6.4 4.4 9.6 1.2-2.2 2.2-3.8 4.2-7.4 2.8 8 5.8 13.4 6.4 19.2 3.8 32.2 8.8 64.6 9.8 97 1.6 46.2-5.8 91.6-25.6 133.8-8.4 17.8-20.8 33.6-31.4 50.4 64.4 42.6 74.6 52.6 89.8 111.6zM836.2 504.8c-13.2-10-27.2-9.8-43.2-3.4-28.8 11.6-40.4 32.4-37.4 62.4-6.8 29 11 43.2 33 55.6 21.6 12.2 42.8 10 62.6-2.4 13.4-8.6 19.8-23.6 19.4-39.4-0.4-29-10.6-54.6-34.4-72.8zM517.4 502.8c0.4-1.2 0.8-2.6 1.4-3.8 18.8 6.6 40.4 9 55.8 20.4 37.4 27.4 63.8 64.6 78.4 109 11.2 33.6-4.2 76.8-31.8 91.6-27.4 14.8-60.4 10.8-91.4 3.2-6.8-1.6-11.4 10.8-18.4 14-11.8 5.4-22.2 11.2-36.4 6.4-28.6-10-44.4-32.4-51.6-58.4-8.2-29.2-11.4-60-13.8-90.2-1-12.4 3.6-26.6 9.8-37.8 21.4-37.8 55-55.2 98-54.4zM468 594.8c2 1.8 9.8 17.8 10.4 21 12 66.6 81.2 71.8 116.6 51.4-4.4-38.6-47.2-102.4-80.4-107.4-7.6-1.2-28.2-2.4-35.4 1-8 3.4-21.4 25.2-11.2 34zM254.8 487.4c36.8 10.4 68.4 29.2 91.8 61.4 22.6 31.2 38 64.2 37.8 103.2 0.8 22.4-2.4 45-16.8 61.4-13.6 15.6-30.6 31.6-49.4 38.6-52.8 19.6-102.4 7.6-145.4-27.6-10.2-8.2-18.4-21.2-23-33.6-7.4-20.2-11.4-41.6-15.8-62.8-8.2-39.2-10.8-77.6 20.4-109.6 27.8-28.6 61.2-42 100.4-31zM253.8 694.4c42.2 6 70.4-19.6 59.6-66.4-3-12.8-12-24.4-13.6-37.2-1.4-11.4-6.2-19-14-25.6-26-22-61.4-31.6-90.8-11.8-15.4 10.4-21 28.4-18.2 46-2.4 43.4 40.6 89.8 77 95z" />
<glyph unicode="&#xe606;" glyph-name="appropriate-staffing" d="M879.4 459.2c8.4 3 57 13.6 56.2 23.6-1.2 14-41.2 5.4-49.4 4.6-50.6-5.2-104.4-7.8-152.4-24.4-12-4.2-33.8-20-46.8-19.6-9.6 0.4-22.6 17.4-29.6 23-28.2 22.4-65.8 22.4-100.4 30 23.6 33.8 53.4 65.6 69 103.6 15.2 36.6 24.2 83.8-0.6 118.8-25.6 36-77.2 41.2-119.6 31.6-45-10.2-84-38.8-105-76-18.6-32.8-29.4-82.8-0.6-113.6 12-12.8 29.4-20.6 48-21 15.2-0.4 36.2 8.4 33 24.4-1.4 6.6-10.6 14.4-16 18.4-20.6 14.8-12 46.4-10.6 62.8 2.8 34 87.6 81.4 111 31 18.4-39.4-21.4-91.6-45.6-126-13.2-18.8-29.8-35.8-47-51.6s-30-34.4-56-28c-47.8 11.8-100 5.6-145.2-12.8-20-8.2-33.6-21.6-51.2-32.6-16-10-22.8-4.2-41 1.2-19.8 6-47.8 5.6-68.6 3.8-3.4-0.2-24-3.4-22.4-10 1.2-5.2 19.4-5 23.2-5.6 18.2-2.8 38.4-6.4 53-17.4 5.4-4 8.4-5.8 7.2-10.4-2.2-7.8-15.4-17.8-21-24.2-12.6-14.2-27-28.6-35.6-45.2-12-23-13.6-47.8-15-72.6-1.2-21-4.6-42.6 8.4-61.4 13.8-20 35.4-24.2 60-24 46.2 0.2 95.4 23.2 112.2 63.6 15.6 37.6 10 82.6-3.8 120-4 10.8-9 21.4-14 31.8-1.6 3.2-7 10.4-5.8 13.2 2.6 6.6 29 16 35 18.8 16.6 7.8 34.2 15.2 53.2 15 23.2-0.2 41.8-9.6 62.8-17.2-9.6-18.2-19.2-36.8-30.2-54.4-12.8-20.4-28.8-34.6-34.6-58.8-8.8-36.8-29-104.6 11.4-130.8 43.4-28.2 113.8-7.4 145.6 26.2 33.2 35.4 31.8 82.4 29.2 126-1.8 30.2-11.6 57-27 83.6-5.2 8.8-8 9.8-2.4 16.4 7 8.6 25.2 14.8 36.2 17 22 4.6 59.4 2 80.2-6.6 5.4-2.2 22.6-10.2 25-15.4 1.8-4.2-1.2-6-5-11-29.2-39.2-69.4-72.6-79.8-121.2-8.8-41.4-15.4-111.4 39.8-129.4 63.4-20.6 126.4 23 142.4 76.6 17.4 58 5.8 123-24.2 176 52.8 23.6 109 41 164.4 60.2 5.4 1.8-12.6-4.4 0 0zM220.2 233.8c-8.6-9-35.8-29.6-51.8-18.2-15.2 10.8-9.2 41.4-5.6 55 9 33.2 30.2 59.8 60.8 82 8.2-39.2 30.4-83.4-3.4-118.8-0.8-0.8 27 28.2 0 0zM462 257.6c-1.4-15.8-15.8-43.2-35-50.2-28.2-10.2-31.6 25-31.4 40.6 0.2 44.4 26.6 81.4 63.4 111.8 2.4-33.8 6.2-68.4 3-102.2-1-12.4 1.8 19 0 0zM662.2 212.2c-10.8-13.6-27-15.8-38.6-2-12 14.4-11.8 36.2-8.8 53 6.2 34.8 29 61.2 59.8 82.2 8.2-45 19.2-93.2-12.4-133.2-4-5 29.8 37.8 0 0z" />
<glyph unicode="&#xe607;" glyph-name="association" d="M861.6 623.2c-2.8 8.4-9 14.2-17.2 16.2-12.6 3-25.2 6.6-37.8 10l-5.4 1.4c-27.6 7.6-50 15.4-69.4 29.8-13.6 10.2-26.6 20.4-35.2 34.8-3 5-5.8 10.2-8.8 15.2-2.4 4.2-4.8 8.6-7.4 12.8-10.8 18.4-29 23.4-43.4 11.6-9.2-7.6-14.2-17-18-26.2-2.4-5.4-4-10.2-5.6-14.4-6.2-16.6-9.4-24.8-35-47.6-5.6-5.4-11.8-11.8-15.4-19.8-2.4-5.2-2.2-10.8 0.8-15.6 3.8-6 11.4-9 18.8-7 5 1.4 10.4 3.8 15.2 7.2 14 9.4 32 33 45.8 52.8l2.2-2.6c4.6-5.6 9.6-11.4 15.2-16.6 27.4-24.8 60.2-42.6 100.8-54 4-1.2 7.8-2.4 11.6-3.6-47.4-19.4-192.8-69-228.2-77.4 0.4 6 0.6 11.8 1 17.8 0.8 17.4 1.8 35.6 3.6 53 1 8.8 2.4 17.6 3.8 26.2 2.8 18.2 5.8 37.2 5 56 3 2 4.8 4 6.6 6s3 3.2 5.2 4.2c23 10 32 38.6 29.6 55.4-3.4 24.2-10 40.8-32.8 53.8-2.8 1.6-6 3-9.2 4.4-4.4 2-8.8 3.8-11.8 6.4-12.2 10.6-25.8 12.6-40 6-24.2-11.2-39.8-30.6-46.6-58-6.4-25.8 6-51.8 30.2-63.4 4.8-2.2 10.6-5 17.6-7.4-1-3.8-2-8.4-2.4-13l-1.8-17.8c-1.8-16.8-3.6-34-4.4-51.2-1.6-31.4-2-62.6-2.4-93 0-2-0.2-2.6-0.6-2-3.2-0.6-7.2-1.2-9.6-0.4-9.2 2.6-18.4 5.4-27.6 8.2-7.2 2.2-14.6 4.4-21.8 6.6-25 7.2-50 14.2-75.2 21.4l-53.2 15c-23.6 6.6-47.2 13.4-70.8 20.2-1 0.4-2.2 0.8-3.2 1.2l17.8 8.2c23.2 10.6 46.4 21.2 69.4 31.8 32.6 14.8 61.2 34.4 85.4 52.4 5.8-16.2 12-32.8 25.6-46 2.2-2.2 4-4.2 5.8-6 3.2-3.6 6-6.6 9.2-8.8 0.6-0.4 1.2-0.8 1.6-1.4 3.8-3.2 10.8-8.2 22.4-5.4 9.6 2.2 14.8 8.6 14.8 18.2-0.2 9.2-7 15.8-12 20.6-1.2 1.2-2.2 2.2-3.2 3.2-14.8 16.2-18.2 37.8-20.6 58.4-1 8-2 17-9.6 25-12 12.8-29.4 16.4-42.4 8.4-12.8-7.8-23.4-16.4-31.4-25.6-15.2-17.4-32.2-35-54-47.4-50-28.2-90-45.8-129.6-57.2-15.8-4.6-24.8-18.6-22-35 2.4-15 12.6-26 30-33.2 11.6-4.6 25-8.4 42-11.6 10.6-2 21.2-3.6 32-5 13.8-2 28.2-4 42-7.2 30.4-6.8 61.2-15 91-22.8l20.2-5.4c7-1.8 14-4.2 21.4-6.4-5-2.8-9.8-5.6-14.6-8.4-18.8-11.4-39.8-25.8-48.6-52.4-5-14.8 2.8-34.2 16.4-40.8 16.6-8.2 34.4-11 52.2-13.8 5-0.8 10.2-1.8 15.2-3-13.6-5.6-27.4-13.2-41.6-22.6-12.8-8.6-22-18.2-27.8-29.4-5.8-11-4.6-26.4 2.8-34.8 12.2-13.8 27.8-18.8 41.6-22l3-0.6c14.4-3.4 29.4-6.8 43.4-11.6 5.4-2 12.4-5.4 14.6-11.4 2.2-6.2-1.2-13.8-4.4-19-3.2-5.4-6.6-10.6-10.2-15.8-3.8-5.8-7.6-11.6-11-17.4-11.8-19.6-13.4-40.8-14.2-64.4-0.2-3.6 0.8-6.8 1.6-9.6 0.4-1 0.6-2.2 0.8-3.2 2.4-11.6 9.6-19.6 16-26.8l3.6-4c2.4-2.8 5.6-4.2 9.4-4.2 4.2 0 11 2.2 12.6 7.2 1.6 5.2 4.6 8.6 9.4 10.8 3 1.4 4.8 4.4 5.4 6.8s1.4 4.8 2 7c1.8 6.2 3.8 12.4 4.2 19.2 1 14.4 3.2 31 11.8 45.6 1.8 3 3.6 5.8 5.6 8.8 2.6 4 5.2 7.8 7.4 12 11.2 20.4 26.6 36.2 47.2 48.2 22.8 13.2 52.4 31.4 78.2 55 8.8 8 13.2 18.8 11.6 29.2-1.2 9.2-7 16.8-16 21.2-12.8 6.4-26 12-38.8 17.4-4.2 1.8-8.2 3.4-12.2 5.2 1 0.2 2 0.4 3.2 0.6 9 1.6 18.2 3.2 27 5.8 10.2 3 20.4 6.6 26 14.2 16.6 22.4 4.8 38.6-5.4 48.8-22.4 22.2-50.8 34.2-80.4 45.4-8.2 3.2-16.4 5.8-24.8 8.6-3 1-5.8 2-8.8 2.8 22 6.8 44.2 13.6 66.4 20 18 5.2 36 10.2 54.2 15.4 29.6 8.4 59.2 16.6 88.8 25.4 20.2 6 40.2 13.6 59.4 20.8l5.4 2c11 4.2 20.8 11.4 29.2 21.4 5.8 7 7.6 17 4.6 26zM478.2 415c-15.2 5.2-31 10.6-46.2 16.6-0.6 0.2-1 0.4-1.4 0.6 0.2 0.4 0.6 0.6 1.2 1.2 8.6 8.4 17.4 15.2 26 20.6 9.2 5.8 19.6 10.8 31.8 15.6 0.6 0.2 4.8-0.2 8-0.8l0.6-0.2c1.4-19.4 2.8-38.8 4.4-59.2l0.2-2-1.6 0.6c-8.2 2.2-15.4 4.4-23 7zM507.8 290.2l-55.6 19.4c13.4 14 30.2 20.8 48 28 1.8 0.8 3.8 1.6 5.6 2.2l2-49.6zM504.8 748.6c2.2 7.2 4.8 14.2 8 21.6 1-1.2 2-2.4 3.2-3.4 4.8-4.8 12.4-4.4 17.2-3 1.2 0.4 2.4 0.8 3.2 0.8 1.8 0 6.6 0 8.6-1.2 8.2-5 11.8-17 8-26.4-1.6-3.8-7-8-12.6-8-10.4 2.4-21.2 6-32 11-3.4 1.2-4.8 4.6-3.6 8.6zM545.6 453.8c25.6-9 50-17.8 70-34.4-14.2-6.2-29-9.8-44.6-13.6-7.2-1.8-14.6-3.6-22-5.8l-3.4 53.8zM619.8 314.6c-12.8-10.8-26.4-20-39.8-29-9-6.2-18.2-12.4-27.2-19.2l-2.4 77.2c24.8-8.2 47.6-16.6 69.4-29z" />
<glyph unicode="&#xe608;" glyph-name="awards" d="M797.4 802.2c-25.6 0-51.6-8.2-77.4-9.2-32.4-1.6-64.6-3.2-96.8-4.4-72.6-2.6-145.2-1.4-218-0.2-36.2 0.6-72.4 1-108.4 1.6-26.2 0.2-57.6 4.4-83.6-1.4-19.6-4.4-50.4-38.4-16.2-47.2 20-5.4 46.4-0.6 67-0.8 123.2-1.4 246-2.8 369.2-1.2 27.6 0.2 55.2 1.2 82.8 2 31.2 0.8 33-7.4 38.2-38.4 4.8-29.2 7.6-52 8.8-80 2.6-72.4 0.8-143.4-4.2-215.8-5.2-71.6-6-145.6-23.8-215.6-35 37.4-70.2 74.4-104.8 111.8-26.6 28.6-55.8 73.2-97 80.6-43.6 7.6-76.4-22.4-104-51.4-29-30.6-55-61.6-90.2-85.4-8 25.4-6.6 56.8-7.6 83-1.4 38.4-3 76.6-2.8 115 0.2 24 1.2 48.2 3 72.4 0.8 10.4 1.6 20.8 2.6 31.2 0.8 8.8-1.4 31.4 3 38.8 7.6 12.2 30.2 9.8 44.2 11.4 21.8 2.4 43.8 3 65.8 3.8 22.8 0.8 46 1.6 68.8 2.2 11.2 0.2 41.4 7.2 51-1.4 6-5.4 4.6-39.6 5.4-48.8 1.4-13.2 4.2-13.2-5.8-17.8-6.8-3-24.6-0.2-32.4-0.4-25-0.4-49.8-0.4-74.8-1.4-31.4-1-56.8-13-84.8-25.6 5.2-0.4 10.2-1 15.4-1.4-5.2-1.4-10.4-2.6-15.6-4.2 13.8-10.4 28.4-22.4 44.4-28.6 23-8.8 55.6-4.2 80-5 43.6-1.4 92.6-7.4 135.4 2.6 43.6 10.2 37.6 41.4 37.4 78.6 0 47.6 14.2 110.2-49.2 116.8-54.4 5.8-113.8-2-168.8-2.6-51.6-0.8-120.2 9.2-168-14-16.6-8.2-32-23.4-37.6-41-8.2-25.6 6.4-61 9.8-86.6 7-52.2-0.2-104.8 3-157 2.2-35.4-7.2-73.4-12-108.8-2.6-20.2-7.2-41.2-8-61.6-0.4-12.2 6.8-48.2 25.8-42.2-1.2-2-2.4-3.6-3.6-5.6 16 0.8 32.4 0.2 48.2 1 21.8 1.2 39.6 19.8 55.6 33 41.2 33.8 84 65 123.4 101 17.8 16 22.2 25.4 40.4 8.8 20.6-18.6 39.4-40.2 57.6-61.2 15.2-17.6 28.2-36.8 43.2-54.6s32.8-34.6 46-53.8c6.6-9.6 12.4-22.8 24.4-27.4 1.4-0.4 8.2 2.4 10.2 2 7.8-0.8 15.2-4 24-3.6 51 1.8 53 61 59.4 101.4 16 101.2 23.8 202.2 30.8 304.4 4.2 61.8 7.8 123.8 10.8 185.6 2.6 41.6 24.2 116.6-39.6 116.6z" />
<glyph unicode="&#xe609;" glyph-name="board" d="M822 490c-13 5.2-27 9.4-40.8 10.8-62 6-114.2-16.4-158.2-59-8.2-8-14.6-8.2-23.6-2.6-22.4 14.4-47.6 21.4-73.8 19.8-46.8-2.8-89-19.4-124.6-50.6-8.6-7.6-14.4-9.6-23.6-0.6-28.6 28.6-63.6 45.6-103.4 51-16.2 2.2-33.6 0.8-49.8-2.2-18.2-3.2-33.8-26-31.2-41 2.8-16.2 22.2-30.2 41.2-29.6 4.2 0.2 8.6 0.6 12.8-0.2 29-5.8 56.6-15 80.6-32.8 14.8-11 16.2-14.2 8-29.6-3-5.8-6.2-11.4-8.6-17.4-16-37-29.4-74.6-31.4-119.8 2-12.2 2.4-29 8-44.2 12.2-33.6 40-56.6 77.6-36 41.4 22.6 66.2 59.2 70.4 106.8 3.8 42-8.2 82-21 121.6-1.4 4-1.2 10.2 1.2 13.6 3.6 5.2 8.8 10.2 14.4 12.6 31 13.6 62.6 24.4 97.6 16 17.8-4.4 20.6-9.2 12.4-25.4-20.6-40.2-33.2-82.4-32.2-128 0.8-35.2 11-65.8 43.6-84.2 6.8-3.8 16-6.8 23.2-5.4 14.8 3.2 31 6.8 43 15.4 33.6 23.8 49.6 59.2 53.4 99.2 4.2 45.2-5 88.4-27.6 128.4-4.2 7.4-2 11.6 5 16.8 28 21.2 59.8 34 92.4 45.8 21.4 7.8 43.2 14.2 64.4 22.4 5 2 12 8.6 11.8 12.8-0.6 5.6-6 13.6-11.2 15.6zM374 162.8c-29 24.8-25.8 98.2 7.6 140.6 13.6-50.4 35.8-96.2-7.6-140.6zM631.6 222c-2.6-8-15.8-14.4-24.2-21.6-7.4 7.2-18 13.8-21.8 22-18.6 40.4-7 79.6 17.2 118 28.4-37.6 41.8-76.8 28.8-118.4zM498.6 573.4c19.2-2.2 35 9.4 51.4 20.8 20.8 14.4 34.8 34.2 48.2 54.8 12.8 19.8 21.4 41.2 21.8 64.6 0.6 23.6-14 42.4-29 58.4-26.8 28.8-75.8 34-109.2 13.4-8.8-5.4-14.6-16-21.4-24.4-4-5-7.6-10.2-10.8-15.6-9.2-15.2-19.8-30-26.6-46.2-7.4-18-9.6-37-9.4-57.4 0.2-14 3.2-25.6 10.4-35.2 18-23.4 43.2-33.2 74.6-33.2zM564 733c0.6-42.2-40.4-88.4-87.4-100-9 57.2 32 105.4 87.4 100zM219.8 547.4c25.2-17.2 53.2-26.2 84.6-26.4 11 2 22.6 2.4 32.4 6.6 8.6 3.8 15 12.4 23 18 15.2 10.6 22.4 26.8 26.8 43.4 3 11.2 0 23.8 0.8 35.8 1.2 21-9.2 36-24.4 48-18.2 14.4-39.8 22.4-62.4 26-16.2 2.6-31.6-0.2-44.2-12.6-2.6-2.6-6.2-5.4-9.6-5.8-22.4-2.4-36.2-16.4-46.6-34.6-18.2-31.4-9.2-78.6 19.6-98.4zM250.6 643.2c9.2-4.6 19-7.6 27.4-14.2 14.6-11.6 28-25.2 42-38-1.4-5.8-3-11.8-4.4-17.6-17.8 1.8-36.2 1.2-53.2 6.8-7.8 2.6-17 16.4-19 27.4-2.2 10.2 4.4 23.6 7.2 35.6zM679.2 556.4c19.6-7 40.4-11 60.8-14.4 25.8-4.4 44.2 8.2 60.4 27.6 15.4 18.4 13 41 18.2 61.6 11.2 44.6-34.8 91.4-72 87-34.6 0.6-59.4-9.2-77.4-33.6-14-18.8-20.8-41.2-24.8-64.2-5-28.8 7.6-54 34.8-64zM712 665.2c25.6-1.6 43.8-19.6 43.8-27.8 0-8.4 16-54.8-20.6-52.4-27.8 17.2-52 60.4-23.2 80.2z" />
<glyph unicode="&#xe60a;" glyph-name="bulk-certifications" d="M422.4 799c6-0.4 11.6-1 17-1.4 19-0.8 27.8-13.8 34.8-29 10.8-23.2 20.8-46.6 32.6-69.2 5.4-10.2 14.2-18.8 21.8-28 6.6-8 15.6-14.6 11.4-27.6-0.4-1.2 6.4-6.8 9.8-6.8 25.8-0.2 45.6-14 65.2-28 44.2-31.8 93.6-53.6 144-73.6 8-3.2 15.6-7.6 23-12.2 10.4-6.4 13.8-17.8 14-28.4s6-15.2 12.4-21.2c13.4-13 25.8-27 39.2-40.2 7.6-7.6 15.6-14.6 24.2-21.2 29.4-22.8 22-56.4-3.2-68-9.8-4.4-21.4-5-32-8-14.2-4-28.6-8.2-42.4-13.2-2.8-1-5.8-7-5.2-9.8 3.6-17.6 7.2-35.2 13-52.2 7.2-21.4-7.2-43.8-24.6-50.6-21.6-8.6-44-14.4-65.8-22.4-24-8.8-47.6-18.4-71-28.2-26.6-11-53.2-22.6-79.8-34.2-16.4-7.2-32.2-15.2-48.8-21.8-8.6-3.4-18.2-5.6-27.6-6.8-13.2-1.6-23.2 4.4-33.6 13.2-18.6 16-38.8 30.6-59.6 43.6-35.8 22.2-75 37-116 46.8-30 7-48.8 39.2-44.4 64.6 4.8 28.4 4.2 56.6-1.2 84.4-7.6 39-5.6 78-3 116.8 1.6 24.8-7.6 43.4-24.4 58.8-34.2 31.2-57.6 68.2-68.2 113.4-5.4 22.6 6.6 45.4 31.4 55.2 24.4 9.6 49.8 16.8 73.8 27.4 25 11 48.8 24.4 72.8 37.2 32.6 17.4 64.2 37.6 102.6 40 2.8 0.4 5.6 0.6 7.8 0.6zM312.4 521.4c0-1.2 0.2-2.4 0.2-3.6 15.2-10 31.2-19.4 45.8-30.4 31.2-23.4 63.4-44.8 101.2-57 18.2-5.8 35.6-7.8 53.6-1.2 5 1.8 10.2 3.2 15.4 4.6 46.2 13 93.8 22 136.2 46 9.4 5.2 18.8 10.2 30.4 16.6-43.8 21.8-84.6 42.6-125.6 62.6-28.2 13.8-58.8 16.8-88.4 9.6-56.8-14-112.6-31.2-168.8-47.2zM515.2 631.2c-6 4.8-9.6 8.2-13.6 10.6-25.4 15.2-44 37-58.8 62-12.6 21.2-16.4 23.8-40.6 18.2-4.4-1-8.8-2.4-13.2-3.8-55-17.6-106.2-43.4-156.4-71.4-21.6-12-22.4-15-17.6-38.2 0.2-1.4 1.6-2.6 1.8-4 3.4-17.2 6.6-34.4 10-51.6 0.4-2 1.2-5.4 2.4-5.8 9.8-2.4 21-8 29.6-5.6 23 6.6 45.2 16.2 67.2 26 49 21.8 98.6 41.4 151.6 51.8 12.2 2.2 23.6 7.4 37.6 11.8zM276.4 466c-1-1-2.2-1.8-3.2-2.8 2.6-28.8 4.2-57.8 8-86.6s11.2-57 14.4-85.8c1.6-14 8.4-19 19.2-24.2 32.2-15.4 64.2-31.6 96-47.8 9.2-4.8 18-10.6 28.8-17-2.2 23.2-4.8 43.6-6 64-2 31-3 61.8-5 92.8-0.2 4.4-2.6 10.6-6 12.4-42.2 22.6-79.8 52-118.6 79.6-8.6 6-18.4 10.2-27.6 15.4zM537.4 368.6c20.8-16.6 39.2-32 58.4-46.2 11-8.2 24-7 36-1.2 13.6 6.4 26.8 14 40.4 20.6 20 9.8 40 19.4 60 29 19 9.2 38.2 17.8 56.6 27.8 4.8 2.6 17 4.2 10 15.4-8.8 14.2-18.4 27.8-28 42.4-38.8-15.8-76.4-31.8-114.4-46.6-38-15-79.2-21-119-41.2zM709.8 262c13 4.2 16.8 17.6 15.8 35-24.2-13.6-90.8-43.2-103-46.8s-48.4 4-69.4 24c-24.8 23.6-49 48-73.8 71.8-2.6 2.6-6.4 3.8-11.2 6.6 4.2-57.6 10.8-112.4 24-166.2 52 10.2 106 21.6 152.2 47.4l65.4 28.2z" />
<glyph unicode="&#xe60b;" glyph-name="certification-corp-groups" d="M739.6 598c-1.8 38.8-11.8 74.2-30.6 108-21 37.6-50 66.4-86.4 85.4-24.4 12.8-50 19.2-75.8 19.2-19.4 0-39.2-3.6-59-10.8-75-27.4-131.4-78.8-167.6-153-24.2-49.4-35-105-33-169.8 2.8-86.6 2-174.2-2.2-260.4l-0.2-3.6c-1-20.4-2.2-41.4 7.8-61.2 8.4-17 18.6-25.2 30.8-25.2 8.6 0 17.6 4.2 27.4 12.8 26.6 23 49.8 44.6 71.2 66.2 6 6 12 12.2 17.8 18.2 22.2 23 45.2 46.8 71.4 66.4 2.6 2 3.8 2.4 4.2 2.4 0.4-0.2 1-1 2.6-3.2 7-10.4 14.2-20.8 21.4-31.4 15.2-22.2 30.8-45 45.6-68 10.8-16.8 21-34.4 31-51.4 7-12.2 14.4-24.6 21.8-37 4.6-7.4 11.4-16 23.6-16 4.4 0 9.2 1 15 3.2 12.4 4.6 21.6 22.8 19.6 39l-0.4 3.8c-1.4 11.8-2.8 23.8-2.8 35.6 0 29.2 0.2 64 1.6 99 0.8 17 2.2 34.4 3.4 51 1 12 2 24.2 2.8 36.4 0.2 4.4 0.6 8.8 1.2 13.2 1.6 16 3.2 32.6-2.4 49.4-5.8 18.2-21.8 30-40.6 30-4.2 0-8.6-0.6-12.8-1.8-12.4-3.6-22.4-5.2-31.2-5.2-1.2 0-2.4 0-3.4 0-27.8 1.6-55.2 4.4-81.4 8.4-23.2 3.6-47.2 9.2-65.6 26.2-7 6.6-16.8 16.4-19.2 26.2-7.6 30.2 3.4 55.2 34.4 79 16.2 12.4 35.8 20.2 59.8 23.6 22.2 3.2 40.8 0.8 58-7.6 4.4-2.2 7-4.2 7.6-6.2 0.6-1.6 0-4-1.6-7-7.8-15-15.6-27-23.8-36.4-11-12.6-26.6-20-42.6-20-15.6 0-29.8 6.6-40 18.8-0.4 0.4-0.6 0.8-1 1.4-2.4 3-5.8 7.4-11.6 7.4-3 0-5.8-1.2-8.4-3.8-4.4-4.2-8.6-11.2-8.4-17.6 0.8-16.2 7.8-30.8 20.6-42.2 15.8-14 36.6-21.8 58.8-21.8 22.6 0 43.6 8 59.2 22.6 22 20.6 49.2 42.4 54 76 5.8 40.8-2 67.8-31.8 91.4-13.2 10.4-32.4 12.8-54.6 12.8-4 0-8.2-0.2-12.8-0.4-17.8-1-35-6-48.2-10-68.4-21.6-109.8-61.4-126.6-121.6-8-29-4.8-55.6 9.8-79.6 23.8-39.2 60.8-62.4 110.2-69 30.2-4.2 61-7.2 90.8-10.2 9.2-1 18.4-1.8 27.6-2.8 1.4-0.2 4.2-0.4 4.6-0.8 0 0 0.4-0.4 0.4-2 1.2-18.6 2.4-37 3.8-55.6 1.8-25.4 3.6-51.6 5-77.6 0.4-8.2 0.4-16.8 0.2-25.6-32.8 41.8-53.2 73.2-88.4 115.4-10.8 13-18.2 19-39 21.4-0.8 0-1.6 0.2-2.6 0.4-1.8 0.4-3.8 0.8-5.8 0.8-2.2 0-4.2-0.4-5.8-1.4-15.8-8.8-29.6-11.2-41.8-28-23.8-32.6-50.2-47-80.8-85.6-5.6-7-12.4-13-19.6-19.4-1.6-1.4-3.2-2.8-4.8-4.2-0.6 2.6-1 5.2-1.2 7.6-0.4 5.6-0.8 11-1.2 16.6-1.4 18.6-3 37.6-3.6 56.4-1 28.6-2 57.8-2.8 86-1 31.8-2 64.8-3.2 97.2-2.6 67.2 16.2 128.2 56.2 181.6 17 22.6 39.8 42.2 69.8 60 26.6 15.8 54.6 24.6 83.4 26.4 31.8 1.8 62.2-10.8 90.6-37.4 22.6-21.4 44.4-55.4 48.8-91.8 1.2-9.6 3.8-30.6-2.2-53.6-4-14.8-21.6-34.2-14.6-42.2 2.8-3.2 6.6-5 11-5.2 0.8 0 1.6 0 2.2 0 17.4 0 31.8 8.8 42.8 26 9.8 15.8 14.6 34.6 13.6 55.8z" />
<glyph unicode="&#xe60c;" glyph-name="circle-of-excellence" d="M485.8 276c-9.6-20.2-20.2-40.2-28.8-61-13.2-32.4-25-65.2-37.6-98-1-2.8-2.8-5.4-4.4-8-16.4-26-45.8-22.2-62.4 0.2-2 2.6-5.4 4.2-11 5.4 1.8 19.4 4.2 38.6 5.2 58 1.2 23.2 1.4 46.6 1.8 69.8 0.6 30.2 1.2 60.2 1.8 90.4 0.2 16-0.4 32 0.4 48 0.4 11.8-7.6 12.4-15.8 14.6-23.4 6.4-47.6 11-69.8 20.4-25.8 11-46.8 29.2-58.2 56.4-6.6 15.8-11 32.6-9.6 48.8 2.6 31 6.2 62.4 22 90.6 11.2 20.2 20.4 41.6 33 60.8 13.8 21 28.8 41.4 48.4 58 15.4 13 30 27.2 46 39.6 22.8 17.4 49.4 26.6 77.4 31.2 43.8 7.2 87.8 2.6 131.6-0.8 51.8-4 103.4-11 152-30.4 43.4-17.4 81.4-42.2 105.2-84.4 13-22.8 15.8-47.2 12.8-73.4-4.4-38-16.8-72.6-35-105.8-23.8-43.6-50.8-84.8-97-108.2-12.2-6.2-25.2-10.2-38.2-14.8-6-2.2-8.4-5-8.4-11.8 0.2-45.6 0.6-91.2-0.4-136.8-0.4-19.4-3.6-38.6-7-57.8-2.4-13-11.4-22.4-22.6-29-3.2-1.8-8.2-0.4-12.4-0.8-16.2-1.2-29 5.2-41 16-20.8 18.4-31.6 43.4-45.6 66.2-9.4 15.4-18.8 30.8-28.2 46.2-1.6 0.2-2.8 0.4-4.2 0.4zM582.8 421.6c-0.4 0.8-1 1.6-1.4 2.4 3 4.4 5 10.4 9.2 13 8.6 5.2 17.8 10 27.4 12.4 26.6 6.4 51.8 15.6 72.8 33.8 35.6 30.6 57 69.2 67 114.8 8.8 39.4 0.2 73-30.6 99.2-22.6 19.2-49 32.2-77.6 40.8-50 14.8-101.4 21.2-153.6 23-15 0.4-30.4 1-45.2-1.2-47.6-6.8-87.2-29.6-119.8-64.8-44-47.4-74.2-101.2-77.6-167.4-0.8-15.2 0-30.2 10.4-42 21.6-24.6 49.6-35.8 82.2-35 2.2 0 5.6 3.6 6.2 6.2 2.6 10.2 4.8 20.6 6.6 31.2 6 32.8 18.4 63.6 35 92 16.8 28.6 40 52 72.8 61.2 43 12.2 84.2 8.6 119.4-22.4 20.4-18 28-40.4 21.4-67.4-6.2-25.6-20.6-46.4-37-66.4-30-36.8-67.8-61.2-113.2-74.6-14.4-4.2-28-10.6-42.4-14.4-7-1.8-10-4.6-10.2-11.6-1-31-2.2-61.8-3-92.8-0.4-12.2 0-24.2 0-36.4 9 13.6 15.2 28.2 23.2 41.4 9.6 16 9.8 37.4 28.4 48 0.6 0.4 1.2 2 1 2.6-3.2 7 2.6 6.8 6.4 8.4 4.8 1.8 9.6 3.4 14 5.8 10.4 5.4 34 3 43-4.2 16.2-13.2 24.6-31.4 33.4-49.6 5.6-11.8 11.4-23.4 17.2-35 1.4 0.2 2.6 0.4 4 0.8 0.8 47.6 1.6 95.2 2.4 143.4 0 0 0.2 0.8 0.8 1 2.6 1.2 5 2.6 7.4 3.8zM412 454.4c1.2-0.8 2.2-1.4 3.4-2.2 3 0.6 6 1.2 8.8 2 27.2 7.4 51 20.2 73.2 38.2 21.4 17.4 34.6 38.8 41.2 64.8 3.6 14.4-2 22.2-16.2 25.6-16.6 4-31.4 0.2-44.8-9.6-23.6-17.2-38.2-41.2-48.8-67.6-6.8-16.4-11.2-34-16.8-51.2z" />
<glyph unicode="&#xe60d;" glyph-name="collaboration" d="M653.8 276c17-3.8 35.8-9.2 55-11.8 21.2-3 41.6 1.4 57.4 17.2 23.6 23.6 16.6 59.4-14 72.6-7.6 3.2-15.6 5.6-23.6 7.6-13.2 3.4-24.8 10.4-23.6 24.4 1.2 12.2 5.4 27.4 14 35.2 20.8 19.4 47 24.6 73 10.2 38.2-21 78-78.8 61.6-129-14-43.2-42.2-73-82.8-91.2-40.4-18-82.4-17.2-122.2-0.4-18.2 7.6-32.4 24.6-48.6 36.8-3.6 2.6-9 5.2-13 4.4-34.8-7.6-69.6-15.6-104.2-24-31.6-7.8-32.8-7.4-45.4-34.6-16.8-35.8-44-59.8-78.6-76-46-21.4-114.8-9.8-154.8 31.8-42.2 43.8-49 92.8-19 152.6 22.8 45.4 56.8 81 107.4 93.6 16.2 4 35.8 0 52.6-5 11.6-3.6 17.4-2.8 24.4 6.4 23.4 31 47.2 61.8 71.4 92.4 6.6 8.2 0 10-5 13.8-17.2 13-36 24.4-50.8 39.8-31 32.2-35.8 72.2-25.2 114.2 10.8 43.2 33.4 80.4 60.6 115 5 6.4 11.2 12.6 18.2 16.2 3.8 2 14 0.2 15.2-2.8 5.2-11.4 14.4-10 23.6-10 49.6-0.4 98.4-6.2 141.6-32.4 13.6-8.2 24.8-21.2 36-33 8.6-9 17.4-18.8 22.6-29.8 5.6-12 10.4-26.2 9.8-39-2.2-50.6-30.8-86.4-70.2-114.4-11-7.8-10.8-12.8-3.6-23.2 14.6-21.2 29.4-42.6 40.4-65.8 8.4-17.6 12.6-37.8 16-57.4 1.2-6.8-4.8-15.2-8.6-22.6-4-7.8-9.8-14.6-13.4-22.6-5.4-11.6-7-23.2 0.4-35.6 3.2-5.8 3-13.4 5.4-23.6zM587.2 315.6c16.6-4.2 15.8-3.6 28.4 17 11.4 18.6 24.8 32.6-1.4 53-19.2 15-31 39.6-46.2 60-10.8 14.4-21.6 28.8-32.2 43.2-7.2 10-29.2 10.2-35.8 0-26.2-40-50.4-81.4-79.2-119.4-17.4-22.8-17.8-39.2 2-58.6 8.8-8.6 13.4-25.6 22.8-28.4 10.6-3.2 24.8 5.4 37.6 8.6 34.6 8.2 69.2 16.4 104 24.6zM490.6 712.8c-18.4 1.4-37.8-6.4-53.4-24.6-4-4.6-13-4.6-19.4-7.6-4.2-2-11.2-5.8-11.2-8.6-0.2-23.8-2.6-48.4 2.8-71 6.4-26.2 32-42.4 55.2-46.6 32.2-5.8 65.8-7 99.2 6.4 40.6 16.4 68.8 49 55.4 86.4-4.4 12.2-11.4 24.4-19.8 34.2-4.4 5.2-15.4 4.2-22 8.4-25.2 15.2-52 23.6-86.8 23zM271.2 331.6c-31.2-27-41.4-64.6-43.8-103.6-1.2-21.4 8.2-43.6 27.6-56.4 23.6-15.8 50.8-12.6 75.8-4.2 45.4 15.4 58.6 55.2 58.8 96.2 0.2 28.4-23.8 42.6-44 57.2-10.6 7.6-23 13.4-33.4-1.8-0.4-0.6-2.2-0.8-3.2-0.6-11.8 4-23.6 8-37.8 13.2z" />
<glyph unicode="&#xe60e;" glyph-name="conferences-events" d="M582.8 668c-10-1.6-19.6-3-29-4.6-20.6-3.4-40.8-7.2-61.4-10-9.8-1.4-13.8-5.6-13-16 1.6-19.4-9.4-33-24-42.6-21.8-14.4-46.4 2.2-47.6 31.2-0.2 3.2 0 6.4 0 11.6-18.2-3.6-35.8-7-53.4-10.4-1.8-0.2-3.6-0.8-5.4-1.4-35-9-27.2-0.2-32.4-38-11-80.8-10.8-162.8-28-243-10-47-19-94.2-28.2-141.4-2.6-12.8-4.2-26-6.4-40.4 5.8-0.8 10.4-1.8 14.8-1.8 37.8 0.8 75.6 1.6 113.4 2.6 41.4 1 82.8 2.2 124.2 2.8 26.2 0.4 52.2 0.8 78.4 0.2 52.6-1.4 105.2-3 157.8-5.2 9.8-0.4 14.4 2.6 14.8 13.2 1.4 35.2 5.4 70.2 5.2 105.4-0.2 46.4-3.2 93-5.8 139.4-0.8 17.2-3.6 34.4-5.6 51.6-0.6 5.8-2.6 8.6-9.2 9.2-52.2 5.4-104 3.8-155.6-4.2-31.2-4.8-62.2-11-93.4-16.6-1.6-0.2-3.2-1-8.2-2.8 14.2-4.6 25.4-8.2 36.6-11.6 19.2-5.8 38.8-10.4 57.4-17.6 10.4-4 19.6-11.6 28.2-19.2 3.4-3 3.6-9.8 4.8-15.2 0.8-3.6 0.6-7.6 1-11.4 0.8-7-0.8-13.2-7.6-16.6-16.8-8.6-33.6-17.2-50.4-25.6-7.6-3.6-16-6-23.4-11.6 12.2 0.8 24.2 2.2 36.4 2.2 46-0.2 91.8-0.8 137.6-1.4 5-0.2 10-2 15-3 6.6-1.4 12.2-3.6 7.2-12.4-0.4-0.8 1-2.8 2.8-7-37-6-73.2-12.2-109.2-17.8-42.4-6.6-84.8-14-127.2-19-21.2-2.6-43-1.4-64 0.6-16.4 1.6-32.8 9.2-38.6 25.8-7.4 21.6-3 32.6 17.8 45.4 22 13.4 46 23.4 69 35 8.8 4.4 17.8 8.8 26.2 16-14.6 3.8-29.4 6.8-43.6 11.6-27.4 9.2-54.8 18.8-81.8 29.2-11 4.2-17.6 18.8-15.4 29 2 10.8 12 21 24 23.6 35.2 7.6 70.4 15.4 105.6 22.2 62 12.2 124.2 24 186.2 35.4 19.4 3.6 39.4 6 59.2 7.8 24.6 2.2 48.2-2 66.4-20 8.8-8.6 14.8-20.6 13.8-34-6.4-105.8 0.6-210.8 18-315.4 2.6-15.4-0.2-31.8-1.4-47.6-0.8-8.8-8.4-12.4-15-17.8-21.2-17.8-44-10.6-66.2-7.2-74.6 11.2-149.6 16-225.2 13.2-81.2-3-161.8-10.4-241.6-25.8-26.8-5.2-54.4-3.6-81 6.4-18 6.8-23.4 28.8-19.4 43.4 11.6 41.8 24.2 83.2 32.4 125.6 10.4 54.4 19.4 109.4 24.6 164.6 3.4 37-0.6 74.8-2 112.2-1 26-4.6 52-4.6 78 0 17.8 16.8 37.4 39 36.6 25.4-0.8 51.2 4.2 76.8 7.6 18.4 2.4 36.6 6.4 55 9.4 7 1.2 10.2 4.2 11.4 12 4.2 26 8.2 52 14.4 77.4 3.8 16 16.6 23.4 30.8 21.4 9.8-1.4 20-12.6 19.8-22.6-0.8-22-2-44-2.8-65.8-0.2-6.4 1.2-10.4 9.2-9.4 28 4 56 7.8 84.2 11 9.8 1.2 13.2 4.8 14.4 15.6 2.2 20 6 40 12.2 59 2.6 8.2 11.2 15.6 18.8 20.6 8.6 5.6 18 1 21-8.8 2.4-8.2 3.4-17.2 3.6-26 0.4-15 0-30.2-0.2-45.2 0-7 3-9.2 10-9.4 12.6-0.6 25.2-2.8 37.8-4.8 3.8-0.6 8.4-1.6 11-4.2 3.4-3 7-7.8 7-12 0.2-2.4-6-6.8-9.8-7.4-14.8-2.4-29.6-4.2-44.4-5.2-7.6-0.6-11-2.6-10.4-11 0.8-10.4 0.2-20.8 0.4-31.2 0.2-15-11.2-35.8-22.6-37.8-24.6-4.2-44.8 5-43.6 33.8-0.2 12 1.2 23.6 2.4 37.6z" />
<glyph unicode="&#xe60f;" glyph-name="contribution" d="M465.8 207.6c66.6 3.8 135.8 23.8 198 67.2 32.2 22.4 59.8 48.6 80.4 81.8 19.8 32 29.8 66.6 22.6 105-4 21-4.8 42.8-9.4 63.8-2.8 12.4-10.2 24-15.4 35.8-16.4 37.2-40.2 68-75.4 89.2-36.8 22.2-77.4 30.2-118.2 19.4-20-5.4-37.4-22.6-54.6-36.4-16-12.6-30.4-27.4-44.8-41.8-36-36.2-62.2-100.2-37.8-154.6 11.2-25.2 32.2-39 56.6-50.2 46.2-21 116.8 2.6 141 30.4 22.4 25.4 8.2 72.6-25 80-25.2 5.6-49.2 1-71.4-12-4.6-2.8-7.6-8.6-11.2-13.2-11.2-14-30-11-38.6 4.4-18 32.2-1.2 61.2 22 77 39 26.8 82.8 33.6 127.8 18.4 29.8-10.2 52.6-31.4 65.6-60.2 15.8-35.4 26-72.4 17.8-112.2-5.4-25.6-19.6-43.8-38.4-61.4-17.6-16.2-37.6-26.4-59.4-32.8-35.6-10.4-71.8-16-109.6-9.2-40.6 7.2-71.4 29.8-101.6 55.4-40 34.2-53.6 79.2-55.8 129.4-2 50 16.4 92.8 46 132 21 27.6 46.4 50 75 69.6 7.6 5.2 11.8 15.8 17.2 24 12.8 19.6 33.6 24.6 54 28 34.6 5.6 69.4 10 104.2 12.8 28 2.2 54-8.6 78-21.4 40.4-21.8 73.6-52.6 98.2-91.2 11.8-18.4 19.8-39.4 28-60 17.6-44.6 18.8-91.6 17.6-138.4-1.2-43.6-17.4-82.6-46-115.6-52.6-60.8-116-106.6-191-136.6-52.4-20.8-106.2-33.8-162.6-35.8-53.2-2-103 10-148.6 38.2-33.2 20.4-64.4 43.4-86 76-14.4 21.8-27.6 44.6-29.8 72.4-1.8 22.8-7 45.4-10.6 68.2-0.6 3.6-0.2 7.6 0 11.2 0.8 62.8 23 119 52.8 172.8 6 11 12.2 22 18.4 32.8 3.8 6.8 9.4 12.8 16.8 8.2 4.2-2.6 7.6-11.2 6.8-16.4-4.2-28.2-11-56-14.4-84.4-4.8-39.8-11-80.2-10-120 1.2-48.8 15.6-95.2 50.2-132.4 23.6-25.4 54.2-40.4 85.6-53.8 24.4-10 50.2-14 85-13.4z" />
<glyph unicode="&#xe610;" glyph-name="csi-project" d="M777.4 489.2c-1.8 21.4-5.8 42.8-7.2 64.2-1.6 26.6-0.8 53.4-2.2 80-0.4 7-4.6 14-8.2 20.4-6.8 11.8-19.6 13.6-31.2 16.6-8 2.2-12 6-13.6 14.2-1.6 8-4.8 15.6-8 23.2-6.2 14.8-18.4 21.4-33.2 17-11.2-3.2-21.4-9.4-32.4-13-36.4-12-73.4-22.6-109.4-35.4-38.6-13.8-76.2-29.8-114.4-44.8-18.6-7.2-37.4-13.8-56.2-20.8 35.6 56 79.4 103 134.2 141.8 0.4-3.6 0.4-5.6 0.6-7.6 1.6-20.4 3.6-29.2 26.4-38.4 5.8-2.4 22.2-5.6 30-1.2s12.4 16.6 10.8 30.2c-2.2 18.8-3 26.2-5 45-0.6 7.2-1.8 14.4-3.6 21.2-6.8 25.2-28.6 26-46.8 12.6-9-6.6-15.6-16.2-23.6-24-43.4-42-86.8-84.2-130.4-126-26.4-25.2-67.8-49.6-94.2-74.8-9.8-9.4-16.2-20.8-14.6-35.2 0.2-1.6 2-58 3.4-81.4 1.6-26.6 1.2-53.6 3.2-80.2 2-25.2 7.2-50.2 8.8-75.4 3.8-64.6-1.2-128.8-5.8-193.2-1.2-16.2 8.2-35 28-45.8 11.4-6.2 22.8-8.4 35.2-2.6 7.8 3.6 15.6 7.4 23.6 10 45.6 14 91.6 27.4 137.2 41.6 37.4 11.6 74 25.6 111.8 35.6 30.8 8.2 62.8 11.8 94 18.6 23.4 5.2 35.8 23.8 35.8 47.8 0 50.8 0.6 101.6 1.6 152.4 0.2 17 1.4 17.8 18.6 23.8 18.8 6.6 35.8 15.8 38.2 37.6 1.4 15.2-0.2 30.8-1.4 46zM713.6 462c-0.6-4-4.8-8.2-8.4-10.6-9.4-6.2-19.6-11.4-29.4-17.2-18-10.8-19.6-29.4-20.2-47.2-0.8-22.4 1-44.8 1.6-67.2 0.6-24.6 1.4-49 1.8-73.6 0.2-9-0.4-16.8-12-20.6-34.6-10.8-68.8-22.6-103-34.8-46.4-16.4-92.4-34-139-49.6-21-7-43.4-10.2-65-15.8-9.4-2.4-12.4 1-12.8 9.8-1.8 40.8-4.6 129.2-4 129.4-4.4 51.6-10.4 103-12.8 154.6-1.8 41.2 0.6 82.6 1.4 124 0.4 15.4 10.8 25.4 20.6 35.4 1.4 1.4 3.8 2 5.8 2.2 41.2 3.6 78.4 20.6 116 35.6 56.2 22.6 112.4 44.2 171.8 57 4.2 1 8.6 1.4 12.6 2.6 5.8 1.6 8-1 8.4-6.2 0.2-2.6 1-5 0.8-7.4-3-25 13.8-39.8 32.6-42.8 25-4.2 24.6-19.4 26-36.4 2.6-32.4 5-64.8 7.2-97.2 1-8.2 1.4-16.2 0-24zM573.4 531c7.4 4.8 10.6 12.4 6.8 21.2-3.8 9-11.4 8-19 6.4-1.4-0.4-2.8-0.8-4.2-1.2-40-9.2-80.2-17.4-120-27.6-23.2-6-45.6-14.8-68.2-23.4-4.6-1.8-8-7.2-11.8-10.8l2.2-1.6c45.8 9.8 91.6 19.6 137.2 29.4 0.4-1.2 0.6-2.4 1-3.6-12-7.8-24.4-15.2-35.8-23.6-14.2-10.4-32-17.4-32.6-40.2-0.2-9.4 1.8-14.2 10-16.6 5.4-1.6 11.2-2.8 17-3.2 12-0.4 24-0.2 36-0.2l0.6-3.6c-12.2-5.6-24.8-10.4-36.4-17-13.4-7.6-30.4-11.8-31-32.8-0.2-9.6 1.8-16.6 12.2-18.4 10-1.6 20-2.4 30-2.6 13.8-0.4 27.6-0.2 41.4-0.2 0.2-1 0.4-2 0.6-2.8-17.8-12.6-33.4-26.8-37.4-49.4-0.8-4.6 2.2-10.2 4.2-15 0.6-1.4 4.6-3.2 5.8-2.6 6.6 3.8 14.4 7.2 19.2 12.8 12.2 14.6 27 25.6 44.2 33.6 8.8 4.2 16.6 9.8 25 15 9.4 5.8 9.6 16.4 9.2 24.8s-9.4 12.8-18.4 13.6c-11.8 1-23.8 1.8-35.6 2.8-9 0.8-17.8 1.6-28 2.4 19.8 9.4 37.6 18.2 55.6 26.6 9.4 4.4 12.4 13 12.2 21.8-0.2 9-6.2 16.2-15.2 18.2-16.4 3.6-33.2 6-49.8 9-4.6 0.8-9 2.4-16 4.4 14.2 8.4 25.6 15.2 36.8 22.2 17.6 10.6 35.2 21 52.2 32.2z" />
<glyph unicode="&#xe611;" glyph-name="document" d="M836.6 212.4c-2.6 17.8-6.6 35.8-10.4 53-2.8 12.8-5.8 25.6-8.2 38.6-20 109.6-23.4 221.8-24.8 318.2-0.6 41-2.2 82.8-4.6 128-1.2 21.2-10.2 35.6-26.8 43-20.6 9.2-44.4 11.6-69 6.4-36.4-7.6-72.4-15.2-108.6-23-58-12.4-116-24.8-174.2-36.6-48-9.8-99.4-19.2-152.6-27.8-3.6-0.6-7.6-1-11.2-1.6-13.8-1.8-27.8-3.6-41-11.6-12.2-7.4-19.4-19.2-18.8-31.4 0.4-11.8 7.6-22.2 19.4-28.4 5.4-2.6 10.8-4.6 16-5.4 17-3 34-5.8 51-8.4 19.6-3.2 39.2-6.4 58.8-9.8 57.2-9.8 114.4-20 171.6-30.4 5.4-0.8 10.4-2.2 16-3.8-10.4-4.8-21.2-9.6-31.8-14.4-27.4-12.4-55.6-25.2-82.6-38.6-26-12.8-49.6-26.8-70.2-41.2-11-7.6-17.2-22.4-14.8-35.8 2.4-13.2 12.2-23 27.4-26.8 14-3.6 27.4-5.4 39.8-5.6 20.2-0.2 40.4 0 60.6 0.2 21 0.2 42 0.2 62.8 0.2 12-0.2 24-1.4 36-2.6l-9.8-4.2c-23.4-9.8-46.8-19.8-70.2-29.6-3.4-1.4-6.8-2.6-10.2-3.8-4-1.4-8-2.8-11.8-4.4-9.2-3.8-18.6-7.2-28-10.6-19-6.8-38.6-14-56.2-25.2-12.4-8-20.6-23-20.4-37.6 0.2-11.6 5.4-21 14.8-26.8 14.2-8.8 30.8-12.6 49.2-11.6l35.2 1.8c38.4 2 78 3.8 117 7.4 3 0.2 5.8 0.4 8.8 0.6 18.6 1.2 39.8 2.6 54.2 19.8l3.4 4-2.8 4.4c-0.6 0.8-1 2-1.4 3-1.6 3.4-3.6 7.4-8 9.8-8.2 4.2-16.8 8.2-26.2 9.4-26.2 3.2-52.8 6-79.8 8.8l-7 0.8c20.6 7.4 41.4 14.8 62.2 21.6 9.4 3.2 19 6.2 28.6 9.2 16.6 5.2 33.8 10.4 50.2 17 25.6 10.2 36.4 29 32.4 56.4-1.2 8-9.2 17.2-17.4 20-16.4 5.8-32.2 9.6-47 11.6-36.8 4.8-74.2 8.8-110.2 12.6l-30 3.2c-6 0.6-11.6 1.2-17.6 1.8l8.8 3.6c21.2 8.2 43 17 64.8 24.8 11.2 4 22.8 7.6 34.2 11.2 11.8 3.6 23.8 7.4 35.2 11.6 28.4 10.2 42.6 27.8 42.6 52.2-0.2 17.6-8.8 29-25.4 33-10 2.6-20.4 4.4-30.6 6.4-6 1.2-12.2 2.4-18.4 3.6-34 7.4-68 14.8-102 22.2l-87.8 19.2 55.8 10.4c61.8 11.4 126 23.2 189 34.2 27.6 4.8 49.2 7 69.4 7 12.2 0 23.6-0.8 34.8-2.4 9.2-1.4 10.4-4.4 11.2-7.8 0.6-2.6 1.2-5.2 1.8-7.8 1.8-7.6 3.6-15 3.8-22.2 1-31.8 2-63.6 2.8-95.4 1.2-45.4 2.6-92.2 4.4-138.4 1.4-33.4 4.2-67 6.6-99.6 1.4-16 2.6-31.8 3.6-47.8l1.4-20.8c1.6-22.2 3.4-44.8 4.2-67.4 0.2-2.6 0.2-8.8-0.2-9.8-1.4-1-8.8-2-13.4-2.4-44.2-4.8-91.4-9.8-138.8-13.8-94.8-8-177.8-14.4-253.6-19.6-18.4-1.4-37-0.8-55.6-0.2-5.8 0.2-11.4 0.2-17 0.4-13.4 0.2-13.6 1.2-15 10.8-1.4 9.2-2.6 20-2.8 30.8-1.4 62.4-2.8 125-4.2 187.4l-1.4 65.2c-0.2 10.2-0.2 20.4-0.8 30.6-0.2 4.6-3.8 14.4-11 15.4-5.4 0.8-12.8-1.2-17.6-4.8-4.2-3.2-7.6-8.8-9-14.4l-0.8-3.2c-2-9.2-4.2-18.8-4.4-28.4-1.2-88-2-176-2.8-264l-0.2-39.8c0-2 0.2-4.2 0.4-6.2 0.2-1.8 0.4-3.6 0.2-5.4-1.2-14 2.2-25.6 10.2-34.4 9.2-10.2 24-15.4 42.6-15.4 3.4 0 6.8 0.2 10.4 0.6 32.6 3.2 65 7 97.4 10.8 37 4.2 75 8.8 112.4 12.2 33.6 3 67.6 7.2 100.4 11.2 66.8 8.2 136 16.4 204.8 16.6 12.2 0 21.8 3.6 30.2 11.6 15.6 12.8 21.2 31 17.6 54.6z" />
<glyph unicode="&#xe612;" glyph-name="earn-units" d="M198.4 293.2c7-4.2 14-10.2 21.8-11.4 19.2-3.2 38.8-5.8 58.2-6 41.6-0.6 83.2 0.6 124.8 1 41.6 0.6 83.4 1.6 125 2 28.8 0.4 57.8 0.2 86.6 0.2 31.2-0.2 62.4-0.2 93.6-0.8 24.6-0.4 49.2-1.4 73.8-2.6 21.8-1 35.4 7.6 43.4 28.6 1 2.6 2.8 5 4.2 7.2-13.4 11.8-29 19.2-46 19.2-28.8 0.2-57.6-0.6-86.4-0.8-17.6-0.2-35.2 0-52.8 0-0.4 0.8-0.8 1.6-1.2 2.2 1.2 0.6 2.6 1.2 3.8 1.8 36 16 69.2 36.2 97.8 63.8 20.6 20 37.8 42.6 50.4 68.4 16.8 34.6 20.8 72 23.2 109.6 1.4 22.6-0.8 44.8-8.8 66-15 39-38 72-71.8 97.4-27.4 20.6-56 38.6-89.6 45.2-28.2 5.6-57.2 8.6-86 10.4-52.4 3.4-99.2-12.4-140.8-44.2-26.4-20.2-49.8-43.6-69.2-70.4-22.4-31-34.6-66.6-43.4-103.8-6.8-28.4-12.4-57-8.4-85.8 5.8-42.4 26.2-78.2 55.8-108.4 23.6-24 51.4-42.2 84.6-51.4-0.2-1-0.2-1.8-0.4-2.8-6-0.4-12.2-1.2-18.2-1.2-31.4-0.8-62.6-1.2-94-2.2-40.6-1.2-81.2-2.6-121.8-4-6.8-0.2-12.2-1.6-14.4-9-2.8-7.8-0.6-14.2 6.2-18.2zM398 404.2c-40.2 38.2-57.4 85-50.2 140.2 9 70.2 42.2 126.2 98.6 168.4 42.6 32 90.4 45 143.8 37.6 30-4.2 59.2-10 85.8-25.2 44.8-25.8 73.6-64.4 84.8-114.4 6-26.4 0.8-53.4-5.6-79.8-5.4-21.4-13.8-41.2-24.4-60.6-7-13-16.2-23.6-25-35-2.4-3-7-4.6-10.8-6.4-6.4-3.2-13-6.2-19.6-9.4-30.2-14.2-59.6-30.2-90.6-42.2-23.2-9-48.4-13.8-74.2-12.4-41.2 2.4-81 9.2-112.6 39.2zM292 181c43.8 1.8 87.8 4.8 131.6 5.6 69 1.4 137.8 1.6 206.8 2 37.4 0.2 74.8-0.2 112 0.4 8.8 0.2 17.6 2.2 22.8 11.2 10.2 17.2 3.2 41.8-14.8 50.6-3 1.4-7.4-0.2-11.6-0.4-0.2 1.2-0.6 4.4-0.6 4.6-8.6-2.8-16.8-6.4-25.4-7.8-10.8-1.8-21.8-2.4-32.8-2.6-48.4-1-97-1-145.4-2.4-81.8-2.4-163.8-5.4-245.6-8.4-34.4-1.2-54.6-3-87.2-4.4-5.2-1.4-22.6 2.2-22.6-18.8s9-22.6 16-25c36.8-6.2 59.8-6 96.8-4.6zM762.8 155.8c-72.8-1.6-145.6-2.4-218.4-3.6-65-1-129.8-1.8-194.8-3-43.8-0.8-87.4-2.4-131.2-3-10-0.2-14.4-6.4-14.6-13.8-0.2-5.2 4.4-11.4 8.6-15.4 3.8-3.6 9.6-5.6 15-6.4 20.4-2.8 40.8-5.4 61.4-6.8 24.6-1.6 49.4-2.4 74-2.8 21-0.4 42 0 63 0 39.6 0 79-0.2 118.6 0.4 48.2 0.6 96.4 2.2 144.6 2.6 43.8 0.4 87.8 0 131.6-0.4 7 0 24 9.2 24 25 0 31-58.6 27.6-81.8 27.2zM563.6 553.6c-11.4-14.2-20.6-26.6-30.8-38-8.8-9.8-7.2-22.8-12-33.8-0.8-1.8 0.2-4.8 1.2-6.8 6.6-13.2 17.6-21.2 32.4-22.4 8.2-0.6 16 2.6 17 11.6 2.2 17.4 8.8 32.8 20.4 45.2 19.2 20.4 39.6 39.6 59.6 59.2 8.6 8.6 18.8 16.2 25.4 26.2 3.8 5.8 5 17.6 1.4 22.8-11.8 17.2-29.8 19.8-49.2 13.6-17.4-5.4-34.6-11.6-52-17-9.6-3-19.4-5.6-32-9.2 2.8 4 3.6 5.6 4.8 6.8 10.8 12.8 22.2 25.2 32.2 38.8 6.6 8.8 10.8 19.4 4.6 30.2-5.8 10.2-15.4 16.8-27.2 16.2s-23.8-2.8-35-6.4c-22.6-7.2-44.8-15.6-66.8-24.6-4.4-1.8-9.4-8.4-9.2-12.4 0.2-4.2 6-10.4 10.4-11.6 7.6-2 16.2-1.6 24.2-1 6.8 0.6 13.4 2.8 20.2 4.2-1.2-5.4-3.8-8.4-5.8-11.8-11-18.8-30.2-32-32.6-56.6-1-11.6 1.2-19.2 9.6-25.4 15.8-11.6 33.8-13.6 52.4-9 11.6 2.8 22.8 7 36.8 11.2z" />
<glyph unicode="&#xe613;" glyph-name="education" d="M883.2 630.2c-1.6 4.6-5.2 7.2-11.4 8-0.2 0-1 0.8-1.2 1.2-0.4 0.4-0.8 0.8-1.2 1.2-0.8 0.8-1.6 1.8-2.6 2.8-1.8 2.2-3.8 4.4-6.4 5.4-17.4 6-40.4 14-64 21.4-14.8 4.6-29.8 8.8-44.4 13.2-22.8 6.6-46.2 13.4-69.2 21-35.4 11.6-71.2 24.6-106 38.6-4.2 1.6-8.6 3.2-12.8 4.6-13.8 4.6-28.2 9.4-37.8 22-1.2 1.6-4 1.8-6.6 1.8h-2.4c-0.4 0-1 0-1.4 0-1.6 0.2-3.2 0-5 0-1 0-2-0.2-3.2-0.2-1.6 0-3 0.2-4 0.6-3.6 1.4-7.6 2.2-11.8 2.2-15.2 0-33-10.6-35.2-27.6-1-6.8-4.8-11.6-12-14.8-3-1.4-6-3.2-9-4.8-2.6-1.4-5.2-3-7.8-4.2-15-7.6-30-15-45-22.6-44.4-22.2-90.6-45.4-135.8-67.6-14.2-7-29.2-13.2-43.8-19.2-5-2-10-4.2-15-6.2-3.6-1.6-7.4-2.8-11.2-4.2-6.6-2.4-13.2-4.8-19.4-8-14.6-7.4-17.2-22.2-17.6-37-0.6-12.4 14.4-28.4 25.4-30.8 31.2-7 72-17.6 110-37 12.8-6.6 26.2-13 39.2-19.2 7-3.4 14-6.6 21-10.2-0.8-1.8-1.4-3.2-2-4.6-0.8-1.8-1.4-3.2-2.2-4.6-7-14.2-11.2-30.6-12.8-50-1.8-23.6 2.2-46 6.2-64.6 10.2-47.4 38.4-81.4 83.8-101.2 18.2-7.8 37.2-11.8 58.4-11.8s43.8 3.8 71.2 12.2c32.6 9.8 57 33 81.4 58 25 25.6 42.2 56.2 51.2 90.8 7 27.4 9.8 52.2 8.6 75.8-0.4 8.6-7.8 17.2-15 18-0.2 0.2-0.2 0.4-0.4 0.6 2.4 1.6 4.8 3.2 7.2 4.6 6.6 4.2 13.4 8.8 20.4 12.8 1.2 0 4.6-2.2 5-3.4 1-2.6 2-5.2 3.2-8 3.8-9.4 7.6-19 9-28.6 4.8-32.4 9.6-67 11.6-102.2 2-35 3.4-70.6 4.8-105 1-24.6 2-50.2 3.2-75.2 0.8-14.6 3.4-29.4 5.8-42.6 0.8-3.6 4.6-7.2 7.8-8.8 0.4-0.2 0.8-0.2 1.4-0.2 2.6 0 6.4 2.8 7.8 4.6 2 2.4 2.4 5.8 2.8 8.8 2.2 17.6 4.6 35.8 6.4 53.6 5.2 51.2 5.4 101.8 4.2 162.2-0.2 9.2-0.2 18.4-0.2 27.6-0.2 18.2-0.2 36.8-1 55.2-0.2 3.4-0.2 6.8-0.4 10.2-1 25.4-2 51.8-11.2 76.4-2 5.2-1 6.6 2.8 8.4 2.8 1.4 5.6 2.8 8.4 4.2 6 3 12.4 6.2 18.8 8.6 3.8 1.4 7.6 2.8 11.2 4.4 15.8 6.2 32.4 12.6 49 16.8 16.2 4.2 32 10.8 38 29.8 1.8 6.2 2.6 12.8 3.2 19.2 0.2 1.6 0.4 3.2 0.6 5 0 4 0.6 8.8-0.6 12.6zM375.6 405.4c0.6 5.6 2.6 11 4.6 17 0.8 2 1.4 4.2 2.2 6.4 8.4-6.4 17-12.4 25.4-18.2 20.2-14 39.4-27.2 55.2-45.2 6.8-7.6 15.6-11.6 25.4-11.6 5.2 0 10.6 1.2 16 3.2 11 4.4 21.6 11.6 29.6 20 27.6 28.6 60.4 55.8 100 83.2 1.8 1.2 3.4 2.2 5.4 3.2-0.6-2-1.2-4-1.8-6-2.2-7.2-4.2-13.8-5.4-20.8-5.6-30.4-14.8-65.6-38.6-95.2-29.8-36.8-67.2-55.6-111.4-55.6-11.6 0-23.8 1.2-36.2 3.8-28.8 5.8-49.6 25.8-62.2 59.6-7.6 20.6-10.4 39-8.2 56.2zM531.2 453.2c-10.8-6.4-22-13.2-33.2-19.4-2.2-1.2-5.4-2-8.4-2-2.2 0-4.2 0.4-5.6 1.2-19.6 11-38.4 22.8-55.8 33.8-5.2 3.2-7.4 5.4-7.6 7.2 0 1.8 2 4.2 7.2 8.2 34.8 26.4 75.2 43.6 123.6 52.4 19.4 3.6 39.2 6 58.4 8.2 8 1 16 1.8 24.2 3 3.6-1.2 7.2-2.2 10.6-3.2 6.8-2 13.2-4 19.2-6.6 2.6-1.2 4.2-2.6 4.2-3.8 0-1.4-1.6-3.2-4.8-4.8-12.2-6.8-24.4-13.4-36.6-20.2-22-12-44.6-24.6-66.8-37.2-9.8-5.4-19.4-11.2-28.6-16.8zM626.2 600c-24.6-2.8-50-5.6-75-9.4-38.8-6-77-19-116.8-39.6-24.4-12.6-42.6-25.4-57.4-40.2-2.4-2.4-4.2-3.4-6.2-3.4v0c-1.4 0-2.8 0.6-4.4 1.6-13.8 9.6-28 18.8-41.8 27.8-5 3.2-10.2 6.2-15.2 9.2-4.6 2.6-9.2 5.4-13.6 8.2-16 10-32 20.2-48.8 31.2h-0.2c22.6 13.2 46.8 27.2 71 40.8 49.2 28.2 99.4 56.8 148 84.4 2.2 1.2 4.6 2 6.2 2 0.2 0 0.6 0 0.8 0 37.2-6 70.8-15.4 102.8-28.8 14.6-6.2 29.6-12.2 44.2-18s29.6-11.8 44.2-17.8c23.6-10 47.4-20.6 70.6-31 8.6-3.8 17.2-7.6 25.8-11.4 8.2-3.6 16.4-7 26-11.2l-1-0.6c-8.4-4.4-14.8-7.8-21.6-11.4-5-2.6-10-5.4-15-8s-10-5.4-15-8.2c-1.8-1-3.4-1.6-4.6-1.6-2 0-4 1.2-6.4 3.6-4.4 4.4-9.6 8.4-14.4 12.2-4.2 3.2-8.6 6.6-12.6 10.4-9 8.4-19.8 12.4-34.2 12.4-6.6 0-13.6-0.8-19.6-1.6-5.4-0.4-10.6-1-15.8-1.6z" />
<glyph unicode="&#xe614;" glyph-name="effective-decision-making" d="M542.8 298c-4.8-6-12-2.4-18.4-7-2-1.4-4.8-2.2-7.2-2.2-12.8 0.2-15.2-1.2-15.4-15.4-0.4-19.6 0.8-39.2 0.2-58.8-0.6-25.8-2.2-51.4-3.4-77 0-1.4-0.4-3-1-4.2-3.8-8-3.8-20.8-16.4-19.8-27 2.2-30.8 9-31.6 22.4-1.6 29.6-2.6 59.4-2.6 89.2 0 24.4 2 48.6 2.2 73 0 3.8-4.4 9.6-8 11-44.2 18.4-88.6 36.8-133.2 54.2-16.6 6.4-34.2 10-50.8 16-26.2 9.4-52.4 19.2-78.2 29.8-7.8 3.2-12.8 11.4-18.8 17.2-10 9.4-11 19.8-12.8 31.6-4 26.8 14.8 48.2 39.2 47.4 79.8-2.4 158.6 9.2 237.4 18.2 12.6 1.4 25.2 4.2 37.8 6 6.4 1 9.8 4.2 10.2 10.6 1.6 46.8 3.8 93.4 4.2 140.2 0.2 14.8-4.6 29.6-6.6 44.6-3 21.4 5.2 43.6 24 52.6 16 7.6 32.2 6.2 46.8-1.6 35-18.8 69.4-39 104-58.8 28.2-16.2 55.8-33.6 84-49.4 29.6-16.8 59.8-32.6 90-48.4 5.4-2.8 12.2-3 17.6-5.8 11-5.8 24.4-10.2 31.6-19.4 7.8-9.8 12.8-21.8 6.8-38-4.2-11.6-8.6-23-14-34.4-5.6-12-13.6-20-31.4-20-19.4 0-39 1-58.4 0.8-73.2-0.2-145.6-8.6-217.4-22.4-9.2-1.8-18.8-1.8-27.8-4.2-3.8-1-9.4-5.4-9.8-8.6-3.4-26.4-6.6-83.6-8.4-110-0.2-3.4 38.2-9 41.8-28.4 0.4-2.6 2-6.6 1.8-12s-3.4-13-8-19zM789.4 567.2c-54.2 37.2-192.8 101.4-253 125-3.8-41.6-9.4-108-13.4-151.8 61.6 15.4 203.4 11.2 266.4 26.8zM452.4 371.2c2.2 21 9.2 64 11 82.4 1.4 13 0.2 14.2-12.4 12.4-15.4-2.2-31-4.8-46.4-7-21.2-3-39.2-0.4-60.2-3.6-2.2-0.4-99.4-4.8-103-7 41.8-18 168.2-64.8 211-77.2z" />
<glyph unicode="&#xe615;" glyph-name="expert-in-field" d="M440.6 243.4c-10 11-18.2 18-23.8 26.6-13.2 20-25.8 40.4-37.4 61.2-19.4 34.6-25 73-28.8 111.6-5.4 52.4 10.6 96.4 54.8 128.2 44.6 32 93.8 48 148.8 50.6 41.8 2 72-15.6 95.6-47.8 31.8-43.8 39.4-92.4 27.6-144.4-18.4-80.8-62.4-144.6-129.2-193-1.4-1-2.6-2.2-4.6-3.8 1.4-1.6 2.4-3.8 4-4.4 42.2-20.4 84.2-40.8 126.6-60.8 9.4-4.4 20.4-5.8 29.8-10.4 4.2-2 6.4-8.2 9.6-12.6-4-2-7.8-5.2-11.8-5.6-52.2-6.6-99.2 10.6-144.6 33.6-18 9.2-35.6 19.2-54 27.8-5.4 2.6-13.4 3.8-18.8 1.8-66.6-26.2-136.2-39.4-206-52.4-12-2.2-22.8-10.8-34.8-14.6-15-4.8-29.4-9.2-46.4-3.2-14.6 5.2-27 11.2-31.6 25.4-3.4 10.8-3.2 23.2-2.4 34.8 2 25.8 6.4 51.6 7.8 77.4 3.2 54.4 5.6 108.8 7.4 163.2 3 84.8 5 169.8 8 254.8 0.8 23.8 5.4 47.6 29.8 58.8 15 7 31.8 11.4 48.2 14 59 9.4 118.6 9 178.2 7.2 60-1.8 120-1.6 180-4.2 65.8-2.8 130-14 190.8-40.8 22.6-9.8 35.6-28.4 44-50.8 10-26.6 3.2-52.6-3-78.2-8.8-36.4-20.2-72.4-27.8-109-11.4-54.2-20.8-108.6-30.2-163.2-3.6-20.2-3.8-41-7.4-61.2-1.6-9.6-7.8-18.2-11.6-27.4-2-4.8-1.8-12.4-5.2-14.4-6.6-4.2-16-8.8-22.4-7-11.6 3.4-25 10-24.6 25.2 0.6 20.6 2.6 41 5.4 61.4 8.4 60.8 18 121.2 25.8 182 6 47.4 9.8 94.8 14.4 142.4 1 10.4 0.8 21 0.6 31.6 0 12.2-6.2 20.4-17 26-42.8 21.8-89.2 29.4-136.2 30.8-91 3-181.8-0.4-271.8-15.8-22.4-3.8-45-7.6-67.6-10.6-16-2.2-25.8-10.6-28-26.2-3.6-23.8-8-47.6-8.4-71.6-1.2-57.8-0.2-115.6 0-173.6 0.2-25.4-0.6-50.8 1.6-76 2.8-33.8 8-67.4 12.2-101.2 0.8-5.8 1.8-11.8 1.8-17.6 0-10.6 4.4-15.2 15.2-13.2 35.2 6.8 70.6 12.6 105.6 20.4 19.6 4 38.8 11.2 61.8 18.2zM608.8 477.6c-3.4 10.8-8.4 30.8-16 49.8-8.2 20.2-25 30.6-47 29-13-1-25.8-3.6-38.4-7.2-59.4-17.2-102.8-65.4-90-133.6 9.4-50.2 22.8-97.6 58-136.6 9-10 15.8-9.6 25.8-3 33.6 21.4 59.2 50.2 77 85.6 16.8 33.2 29.2 68 30.6 116z" />
<glyph unicode="&#xe616;" glyph-name="featured" d="M785.4 513.4c-3.4-6.2-0.2-12.6-14.4-22.6-28.6-20.2-73.2-52.2-106.4-73-5.8-3.6-8.8-7-5.4-15.6 20.6-52.2 57-116.6 77.8-168.8 4.2-10.6 21.6-72.8-0.6-85.8-14.6-8.4-71.8 13.2-87.4 27-35.2 30.8-74.6 50.4-115.4 66.8-7.2 2.8-14.4 5.6-21.4 9-28.8 13.4-53.6 4.6-77.6-17-32.6-29.2-95.2-132.8-136.4-128s-27.8 187.2-13.4 246c4.4 18 8.8 31.6-5.6 36.2-25.6 8.2-51.6 17.2-76.8 26.2-19.6 7-42.6 19.6-40.4 42.2 1 10-5.4 24.8 7.2 31.8 1 0.6-0.4 6.2 0.6 8.2 12.6 22.2 34 24.4 52.6 32.6 46.6 20.4 107.8 31.4 154.4 51.6 3.4 1.6 7.2 4.6 9.4 8 18.4 29.8 22.6 68.2 40 98.6 11 19 19.8 39.6 30.4 58.8 6 10.6 13.6 19.8 21 29 4 5 8.8 10.8 14 12.4 8.6 2.6 18 3.4 26.8 2.8s15.2-4 19.2-17.6c14.6-48.8 31.2-96.6 48-144.4 5.8-16.2 16.2-26.2 32.2-29.6 47.2-10.2 200.2-21 216.2-16.4 3.2 1 7.8 1.4 11.6-0.2 2.8-1.2 4.8-5.4 9.2-11 14 1 9.2-14-2.4-20.6-28-16-197.4-14-214.8-12.4-17.4 1.8-64-7.4-82.6 24.2-13.8 23.8-38 106.4-43.6 130.8-9.4-18.4-16-22-23-38.8-14.6-35.6-27-54-40.6-90.2-6.2-16.6-16.4-26.2-30.8-30.4-13-3.8-26.4-6.8-39-12.4-23.4-10.6-106-46.6-127.4-57.4 16.8-11.2 74-17.2 88.8-30.2 21-18.2 17.2-34.4 13.2-61.4s-20.4-157-20.4-163c22.2 25.6 50.4 60.2 71.4 83.2 12 13.4 56 45 73 49.2 12.8 3.2 47.6-17.8 63.4-26.2 27-14.4 126-75.6 126.8-74.6-15.4 27.6-45.4 84.6-60.8 112.2-11 19.6-20.2 40.4-21.6 64.4-0.6 12-5.6 27.4 9 31.8-1 4.4 6.8 14.2 10.2 17 7.6 6.4 33.8 9.6 37.6 11.8 8.4 4.8 72.4 29.4 116.2 37.8 26.4 6 32 5 28-2z" />
<glyph unicode="&#xe617;" glyph-name="focused-learning" d="M139.2 425c-10.6 3-8.8 9.2-5.2 17 13 27.4 39 42 60 61.4 21.2 19.4 43.4 37.8 64.8 56.8 44.2 39.2 92.2 72.6 144.8 99.6 16 8.2 32.4 15.6 49.2 21.8 10 3.6 21 6 31.4 6 15.4-0.2 28.2 5.2 41.6 12.2 48.2 25 99.6 36.8 154.2 29.6 26.2-3.4 45.4-19.2 63-37.4 30.4-31.6 44.6-73 66-110 10.2-17.4 21.6-34.2 33.2-50.8 2.8-3.8 8-7 12.8-8.4 39.8-11.4 47.2-54.4 26.6-81.4-14.2-18.8-32.4-34.6-50-50.6-18.6-17-38-32.8-57.4-48.8-31.8-26-63.6-51.8-95.8-77.6-53.6-42.8-114.8-70.8-180.8-87.2-45.4-11.2-91.8-17.4-138.8-8.2-23.2 4.6-44 13.8-63.6 26.4-51.4 33-89 78-115.4 132.4-11 22.8-19.6 46.6-29.8 69.8-1.8 3.8-5.8 6.8-9 10-5.2 5.2-9.2 10.2-1.8 17.4zM438.6 609.2c-5-0.8-9.6-0.6-13-2.4-13.8-7.2-28-14-40.8-22.8-52.8-36.4-94.2-83.8-129.2-137-15-22.8-27.6-44.6-18.2-75 15.4-49.8 40-92.2 84-121.4 15-10 30.8-21.8 47.6-24.8 26.8-4.6 55.2-6.4 82.2-2.6 83.2 11.4 154.8 47.2 215.4 106.2 39 38 70.4 81.4 99.6 126.8 9.2 14.2 13.8 28.6 4.2 44.6-25.8 43.4-51 87.2-77.2 130.2-11.4 18.6-28 33.4-50.8 33-41.2-0.6-79.4-13-108.8-43-32-32.6-37.6-73.6-31-117 1.8-12.2 7.2-24 12.2-35.4 1.8-3.8 7.4-8 11.8-8.4 19.6-1.8 51 17.4 58.8 35.6 11.2 26.4 11.4 52.6-2.8 78.2-8.6 15.6 0.4 32 17.8 29.4 13-2 28.6-7.2 37-16.4 23.6-25.8 30-58 21.4-91.6-11.4-44.4-41-73.2-83.2-88.8-15-5.6-30.6-11.4-46.2-12.6-17-1.2-37.2-2-51.2 5.8-26.6 14.6-48 36.8-54 69.2-1 5.8-1.6 11.8-2.4 17.8-4.2 30-1.6 59.8 4.8 89.2 2.2 10.8 7.4 20.8 12 33.2z" />
<glyph unicode="&#xe618;" glyph-name="get-certified" d="M245.8 776.2c5.2 0 10.4-0.6 15.6-1.8 12.4-2.6 25-5.4 37.8-6l23.2-1.2c46.8-2.4 95.2-4.6 142.8-5.2 42.6-0.4 85.8 0.2 127.6 1 17.6 0.4 35.4 0.6 53 0.8 13 0.2 25.8 0.4 38.8 0.6 23.8 0.4 47.6 0.8 71.4 0.8h7.6c14.2 0 29-0.6 41.4-7.6 6.8-3.8 14.2-11.2 14.4-18 0-3.4-1.2-6.4-3.8-9-4-4-10.8-6.2-18.6-6.2h-14.2c-10.4 0-21 0.2-31.4 0-22-0.2-43.8-0.6-65.8-1-40.4-0.6-82-1.2-123.2-1.4h-19.6c-42.4 0-85.6 0.6-127.4 1l-20.8 0.2c-22.6 0.2-45.6 1-68 1.6l-19.2 0.6c-9.4 0-11.6-2.8-12.4-8-3.2-21.8-7.2-43.6-10.8-64.6l-3.8-22 1-2-2.6-2-0.6-17.2c-0.6-15.6-1.2-31.2-1.4-46.6l-0.2-11.4c-0.4-19-0.8-38.6 0-57.8 1-22.6 2.8-45.4 4.4-67.6 0.8-11 1.6-21.8 2.4-32.8 0.6-8.6 1-17.4 1.6-26 1-16.4 2-33.2 3.6-49.8 2.4-26 5.8-51.6 10-82 1-6.6 2.6-13 4.4-19.8 0.4-1.8 1-3.8 1.4-5.6 25.6 27 51 54 76.4 81 7 7.6 14 15 21 22.6 17.4 18.6 35.2 37.8 53.6 56.4 5.6 5.8 14.8 11 27.8 16 5.2 2 11.4 3.2 18.4 3.2 20.6 0 46.4-9.4 60.2-22 18.6-17 35.4-35.6 51.6-53.6l3.4-3.8c16.8-18.6 34.6-34 55.6-48.2 0 0.2 0.2 0.4 0.2 0.6 1 2.8 1.8 5.4 2 7.6l1.2 14c1.6 17 3.2 34.6 3.8 51.8l0.6 17.4c1.2 36.2 2.6 73.8 1.8 110.6-0.6 25.8-2.8 52-5 77.4-1 12-2 24-2.8 35.8-0.2 3.4-1.2 6.4-10.2 7.2-7.6 0.6-15.2 1.6-22.8 2.4-10.6 1.2-21.6 2.6-32.6 3-33.6 1.6-67.8 2.6-100.8 3.6-13.2 0.4-26.4 0.8-39.6 1.2h-1c-6.6 0-7.4-2.4-7.6-4.6-1.4-13.8-2.8-27.6-4.4-41.6l-1.6-15c0-0.8 0-1.4 0.4-1.8s1.8-1.2 6.4-1.4l20.2-0.4c29.8-0.4 59.6-0.8 89.4-1.6 6.8-0.2 14.4-1.4 21.2-3.4 6.4-2 12.6-4.6 18.4-7.2 2-0.8 4.2-1.8 6.2-2.6 2.4-1 4.6-2 7.4-3.4l15.8-7.2-14.2-1.4 14.6-3.8-5.4-4.2c-1.6-1.4-3.2-2.6-4.8-3.8-3.4-2.8-6.6-5.4-10.4-7.6-2-1.2-4.4-2.2-6.8-3-2.2-0.8-4.8-1.8-5.8-2.8-6.6-7-15.6-7.8-23.4-8-12-0.4-23.8-0.8-35.8-1.2-22-0.8-43.8-1.4-65.8-1.8l-8.2-0.2c-8-0.2-16-0.4-23.8-0.4-14.4 0-25.8 0.6-36.4 1.6-30.4 3.2-47 13.2-50.6 30.4-1.2 6.2-0.8 12.4-0.2 18.4 0.2 3.2 0.6 6.4 0.6 9.6v17.6c0 21.4 0 43.4-0.6 65-0.4 11.2 3.4 21 10.8 28.2 10.8 10.6 28.6 15.6 51.8 14.6 27.6-1.4 55.6-1.6 82.8-2 12.8-0.2 25.8-0.2 38.6-0.6 12.8-0.2 25.4-0.4 38.2-0.6 31.2-0.4 63.6-0.6 95.2-2.8 30.2-2 52-11.6 65-28.2 7.6-9.6 15.2-21.4 13.6-35.6-1-8.8-2.8-17.6-4.6-26-1.4-6.2-2.6-12.6-3.6-18.8-2.6-16.2-5-32.8-6-49.6-0.4-6.6 0.2-13.4 0.6-20 0.6-7.6 1-15.4 0.4-23-1-11-0.4-22.2 0-33 0.6-14.2 1.2-29-1.2-43.8-1-6 0-12.4 1.2-19.2 0.4-2.6 0.8-5.2 1.2-7.8 1.2-9.6 2.6-19.4 3.8-29l5.4-41.2c1.8-14.2 3.6-28.4 5.6-42.4l0.4-2.2c2.4-17.2 5.2-36.8-18-50.8l-1.2-0.8-3.4 0.8 3.4-5.2-6.6 0.4c-4 0.2-7.6 0.6-11.2 1-7.2 0.8-14 1.4-18.6 0.4-2.8-0.6-5.6-1-8.4-1-11 0-18.4 5.2-24.4 9.4-9.6 6.6-18.4 14-27 21-4.6 3.8-9 7.4-13.6 11-8 6.4-16.2 12.6-24.2 18.8-14.6 11.2-29.8 23-44.2 34.8-12.6 10.4-24.6 21.4-36.4 32-5 4.4-9.8 9-14.8 13.4-3.2 2.8-5.8 3.2-8.8 0.4l-3.2-2.8c-4.8-4-9.8-8.2-14.2-12.6-10.8-11-21.4-22-31.2-32.8-11.4-12.4-20.4-23-28.6-33-3.8-4.8-7.4-9.6-11-14.6-4.2-5.6-8.4-11.6-13.2-17.2-7.2-8.6-14.6-17-22-25.2-7-8-14-15.8-20.8-23.8-2-2.4-3.4-5-5-8-1.6-2.8-3-5.8-5.4-8.6-2.4-3-5.8-5.6-9.2-8.2-1.4-1-2.8-2.2-4.2-3.4l-2.2-1.6-6.4 4.2c-4.6-4.8-10.6-5.4-15.8-5.4-1.6 0-3.2 0-5 0.2-1.2 0-2.6 0.2-4 0.2-18.2 0.4-28 2.8-34.4 16-6.4 13-12.4 26.8-14.8 41.2-9.4 57.2-16.2 104-21.4 147.2-3.2 27.6-5 55.6-6.8 82.6-0.6 9.8-1.2 19.6-2 29.4-3.4 46.6-7 99.2-10.4 151.2-1.2 19.4-2 38.8-3 58.4-0.6 11.6-1 23-1.6 34.6-0.4 7-0.8 14-1.4 21.2-1 14.4-2.2 29.4-1.8 44 0.4 19.4 17.4 31.8 41 31.8z" />
<glyph unicode="&#xe619;" glyph-name="grants" d="M904.6 613c-8.8 3.8-18.8 5-27.6 8.6-17.2 7-34.2 14.4-51 22.4-47.8 22.6-95.6 45.8-143.2 68.6-20.4 9.8-41 19.2-63.8 7.8-3.2-1.6-8-2.4-11-1-12.2 5-22.6-0.6-32.4-6.2-35.2-20-70-40.8-105.2-61-43.2-25-86.8-49.6-133.6-66.2-46-16.2-89.6-38-131.6-63.4-38.6-23.4-72.8-52.8-102-87-0.6-5.4-0.8-10.8-1.8-16-2-10.8 4.2-23.2 14-25.4 12.6-2.8 25.4-4.4 38.2-6.6 38.6-7 77-14 115.6-21.2 24.6-4.6 49.4-8.6 73.8-14 31.8-7 62.8-18 95.6-18.4 24.4-0.2 48.2 1 66.2 22.4 2 2.4 5.2 4 8 5.4 20 10.2 40.2 20 60.2 30.6 97 50.8 198 91.8 298.4 134.4 18.4 7.8 37.4 14.6 48.2 35.2 8.6 17.2 2 43.6-15 51zM808.8 568.6c-29.2-17-58-34.8-87.6-51-38.6-21.2-77.4-41.8-116.6-61.4-34.4-17-69.6-32.4-104.8-47.8-7-3-15.4-3.2-23.2-2.8-27.4 1.4-54.8 2.8-82.2 5.4-39.4 3.6-78.8 7.8-118 12.8-23.2 3-46.2 8.2-69.2 12.4-0.2 1.2-0.2 2.4-0.4 3.6 10.6 4.8 28 24 38.6 28.8 23.8 11 115 55.2 137.2 68.4 30 17.8 61.2 33 92 49.2 1 0.6 2.2 0.8 4.6-0.6-4.8-3.8-9.6-7.6-14.2-11.6-8.4-7.6-16.8-15.4-24.8-23.6-8.4-8.4-11.6-22-7.2-31.8 5-11.2 13.6-16.2 25.6-16.6 22.6-0.6 42 9.6 61.8 18.4 13.8 6 27.8 11.4 41.6 17 0.6-0.8 1.4-1.6 2-2.4-2.4-4.2-4.6-8.8-7.4-12.8-6.4-9.6-9.8-19.6-7.2-31.6 2.4-11.2 10.2-21.4 20.4-20.2 11 1.2 23.4 2.6 32.4 8.6 21.6 15 41.6 32.8 62.2 49.6-1 0.6-2 1.2-3 2 0.8 4.4 1.6 9 2.6 15-5.4 1.8-12.6 4-21 6.8 6.6 14.4-4.2 25.4-12.8 33-7 6.2-20 6.8-30.2 6.2-11.8-0.6-23.6-4.8-35.2-8.2-16.2-4.8-32-10-49.2-13.2 6.6 4.6 13.4 9 20 13.6 5.4 3.6 11.2 6.6 16 11 6.4 5.6 4.8 14.8-3.4 16.4-7.4 1.4-15.4-0.2-23-0.6-2.2-0.2-4.4-0.8-6.6-1.2-0.2 0.8-0.6 1.6-0.8 2.4 19.4 10.6 38.8 21.2 58.2 31.4 6.8 3.6 13.6 7.4 21 9.6 5.8 1.8 12.4 2.8 18.4 1.8 47-7.6 92-23.8 136.2-41.6 23.6-9.4 46.2-21.8 69.4-32.8 0-1.4 0-2.8 0.2-4.2-4-2.2-8.2-4.8-12.4-7.4zM869.6 406.4c-4.8 4.6-11.4 7.8-17.6 9.8-14 4.2-29.6 2.4-34.2-12.6-4.6-15.4-14.6-25.6-27.6-33-14.2-8.2-28.4-16.6-43-24.2-41.6-22-83.6-43.4-125-65.4-38.2-20.2-76-41.2-114-61.8-10.2-5.6-20-8.6-31.4-2-6.4 3.8-14.4 5-22 5.6-45.6 3.6-91.2 9-135.6 21.4-45.8 12.8-91.4 26-136.8 40-11.4 3.4-21.4 4.2-32-1-8-3.8-16-23.8-12.4-31.4 7.8-15.6 18.8-25.6 36.2-26.2 10.4-0.4 21-1.2 31.2-3.4 41.4-9 82.4-20 124-27.8 31.8-6 64.2-8.4 96.4-12.4 11-1.4 21.8-3.2 32.6-5.4 4.4-1 8.6-3.4 15.6-6.2 18.2 6.4 38.6 11 57 20.4 53.2 27 105.2 56.2 158.2 83.6 55.2 28.6 110.2 57.4 168.8 77.6 21.8 7.4 27 39.2 11.6 54.4zM251 293.2c58-13.4 116.2-23.4 175.4-28 3-0.2 6.8-2.8 8.6-5.4 13.4-19.8 33.4-26.2 50.8-13.2 32.4 24 68.6 39.8 103.6 58 59.6 31 120.6 59.4 180 91 33 17.6 64.2 39.6 96 59.6 10.6 6.6 19.8 14.8 23.6 29.2-10.4 16-15 16-32.6 8.2-7.8-3.6-15.4-8-22.8-12.6-28.2-17.6-55.6-37-84.8-52.8-54.8-29.6-110.6-57-165.8-85.4-36.4-18.6-73.4-35.2-113.4-43-6.4-1.2-13.4-2-19.8-0.8-27 4.4-54.2 8.6-80.8 14.8-49.4 11.2-98.6 23.4-147.6 36-17.6 4.6-34.4 12-51.6 17.8-17.4 5.8-33.8-3.8-37.2-20.8-2.8-14 8.4-29.4 24-32.8 31.6-6.4 63-12.6 94.4-19.8z" />
<glyph unicode="&#xe61a;" glyph-name="group-certifications" d="M937.6 549c11.2 43.2 7.4 83.8-30.6 117-20.6 18-42.2 28-68.2 30-9.8 0.8-19.6-1.2-29.4-1-4.6 0-10.2 0.6-13.6 3.2-12.2 9.2-24.4 11.6-34.2 0.8-16.4-18-35-36.4-44.2-58-10.6-24.8-14.4-53.2-16.8-80.4-3.8-42.4 8-80.2 43.2-108 2-1.6 3.4-4.2 6.2-7.8-73-15.6-131.4-80-181.4-135-1.6 6.2-4.4 35.2-5 38.6-4.6 29-1.8 56.2-8.4 84.6-7 29.8-34.4 60.6-76.4 42.6-41.8-17.8-76.4-44.8-107.4-76.6-22.6-23.2-51.4-66.4-70.2-97.6-0.8 5.6-2.8 38-3.2 41.8-3.4 22.4-1.8 40-6.8 62-8.4 37-46 60.4-81.2 30.4-18.6-15.8-37.2-32.8-51-52.6-21.8-31.6-40.8-65.2-58.6-99.4-13-24.8-23.6-51.6-18.2-81 1.2-6.4 7-17.2 10-17 7.4 0.6 14.6 6 21.2 10.2 2 1.4 2.6 5.2 3.8 7.8 10 22.6 18.8 45.8 30.2 67.6 16.2 31.6 32.4 63.4 61.4 86.2 10.4 8.2 15.8 7 18.2-5.6 3.4-19.4 8.4-32.8 10-52.4 2.4-28.6-0.6-49 14.8-76.2 6.8-12.4 22.4-23 42.6-14.8 20.4 8.4 27 29.8 36 47.6 20.6 40.2 47.6 59.4 78.4 92.4 15.6 16.6 35.8 29 54.6 42.4 10.6 7.4 18.6 4.4 24-8.4 13.4-31.4 12.2-64.2 14-97.2 1.2-19.2 5.2-38.4 9.4-57.2 2.2-9.6 24.6-22.8 33.6-20.6 16 3.8 31.8 8 41.8 23.4 7.2 11 16.2 21 24.2 31.6 24.6 32 47.4 66 82.8 87.6 24.6 15 51 26.6 80.8 25.2 14.6-0.6 25.8-5.8 34.8-19.4 17.6-26.8 23.6-57.2 31.8-87 3.2-11.8 5.2-24 7.6-36 5.8-29 10.8-58 17.6-86.8 1-4.6 9.2-7.6 14.2-11.2 1.6 3.6 3 6.4 4.4 9.6 1.2-2.2 2.2-3.8 4.2-7.4 2.8 8 5.8 13.4 6.4 19.2 3.8 32.2 8.8 64.6 9.8 97 1.6 46.2-5.8 91.6-25.6 133.8-8.4 17.8-20.8 33.6-31.4 50.4 64.4 42.6 74.6 52.6 89.8 111.6zM836.2 504.8c-13.2-10-27.2-9.8-43.2-3.4-28.8 11.6-40.4 32.4-37.4 62.4-6.8 29 11 43.2 33 55.6 21.6 12.2 42.8 10 62.6-2.4 13.4-8.6 19.8-23.6 19.4-39.4-0.4-29-10.6-54.6-34.4-72.8zM517.4 502.8c0.4-1.2 0.8-2.6 1.4-3.8 18.8 6.6 40.4 9 55.8 20.4 37.4 27.4 63.8 64.6 78.4 109 11.2 33.6-4.2 76.8-31.8 91.6-27.4 14.8-60.4 10.8-91.4 3.2-6.8-1.6-11.4 10.8-18.4 14-11.8 5.4-22.2 11.2-36.4 6.4-28.6-10-44.4-32.4-51.6-58.4-8.2-29.2-11.4-60-13.8-90.2-1-12.4 3.6-26.6 9.8-37.8 21.4-37.8 55-55.2 98-54.4zM468 594.8c2 1.8 9.8 17.8 10.4 21 12 66.6 81.2 71.8 116.6 51.4-4.4-38.6-47.2-102.4-80.4-107.4-7.6-1.2-28.2-2.4-35.4 1-8 3.4-21.4 25.2-11.2 34zM254.8 487.4c36.8 10.4 68.4 29.2 91.8 61.4 22.6 31.2 38 64.2 37.8 103.2 0.8 22.4-2.4 45-16.8 61.4-13.6 15.6-30.6 31.6-49.4 38.6-52.8 19.6-102.4 7.6-145.4-27.6-10.2-8.2-18.4-21.2-23-33.6-7.4-20.2-11.4-41.6-15.8-62.8-8.2-39.2-10.8-77.6 20.4-109.6 27.8-28.6 61.2-42 100.4-31zM253.8 694.4c42.2 6 70.4-19.6 59.6-66.4-3-12.8-12-24.4-13.6-37.2-1.4-11.4-6.2-19-14-25.6-26-22-61.4-31.6-90.8-11.8-15.4 10.4-21 28.4-18.2 46-2.4 43.4 40.6 89.8 77 95z" />
<glyph unicode="&#xe61b;" glyph-name="arrow-back" horiz-adv-x="594" d="M163.84 448l430.080 430.080-81.92 81.92-512-512 512-512 81.92 81.92z" />
<glyph unicode="&#xe61c;" glyph-name="close" horiz-adv-x="1021" d="M1020.988 896.753l-63.247 63.247-445.741-448.753-448.753 448.753-63.247-63.247 445.741-448.753-445.741-445.741 63.247-63.247 448.753 445.741 445.741-448.753 63.247 66.259-445.741 445.741z" />
<glyph unicode="&#xe61d;" glyph-name="aacc" d="M224 492.8c-19.2-19.2-38.4-38.4-57.6-54.4s-44.8-28.8-67.2-38.4c-19.2-9.6-38.4 0-57.6 6.4-16 6.4-19.2 22.4-19.2 35.2s12.8 22.4 25.6 25.6c25.6 9.6 44.8 25.6 64 48 28.8 28.8 57.6 57.6 86.4 86.4 38.4 32 89.6 9.6 112-22.4s19.2-67.2 22.4-99.2c6.4-51.2 9.6-102.4 16-153.6 0-6.4 6.4-9.6 6.4-16 3.2 0 3.2 0 6.4 0 12.8 54.4 28.8 108.8 41.6 163.2 22.4 89.6 44.8 182.4 73.6 272 16 57.6 38.4 115.2 60.8 172.8 9.6 28.8 32 41.6 54.4 38.4s54.4-28.8 57.6-51.2c3.2-32 3.2-67.2 3.2-99.2 0-92.8-3.2-182.4-6.4-275.2 0-128 0-252.8 0-380.8 0-3.2 0-9.6 6.4-12.8 3.2 12.8 9.6 25.6 9.6 38.4 12.8 76.8 22.4 153.6 32 230.4 6.4 35.2 9.6 70.4 19.2 105.6 12.8 54.4 73.6 89.6 128 80 41.6-6.4 83.2-16 124.8-25.6 9.6-3.2 16-6.4 25.6-9.6 19.2-12.8 19.2-32 0-44.8-12.8-6.4-25.6-12.8-41.6-16-35.2-6.4-67.2-12.8-102.4-16-41.6-3.2-57.6-19.2-64-57.6-12.8-83.2-22.4-166.4-38.4-249.6-12.8-67.2-16-137.6-48-201.6-12.8-28.8-54.4-38.4-76.8-22.4s-32 41.6-35.2 64c-16 92.8-6.4 182.4-6.4 275.2-3.2 150.4-6.4 304-9.6 454.4 0 3.2 0 9.6-6.4 12.8-6.4-19.2-16-41.6-22.4-60.8-35.2-108.8-54.4-220.8-70.4-336-6.4-44.8-16-92.8-25.6-137.6-9.6-35.2-35.2-57.6-67.2-57.6s-57.6 22.4-70.4 51.2c-16 41.6-32 83.2-44.8 124.8-12.8 48-19.2 96-32 144-3.2 3.2-3.2 3.2-6.4 9.6z" />
<glyph unicode="&#xe61e;" glyph-name="ajcc" d="M425.6 668.8c38.4 9.6 80 16 118.4 28.8 60.8 19.2 118.4 41.6 179.2 60.8 9.6 3.2 22.4 0 32 0-3.2 0-6.4 0-12.8 3.2 3.2 0 3.2 0 3.2 0 22.4 3.2 41.6-6.4 48-22.4 6.4-19.2 16-35.2 12.8-57.6-16-70.4-22.4-144-28.8-217.6-3.2-54.4-3.2-112-6.4-166.4 0-48 3.2-96 3.2-140.8 0-35.2-19.2-57.6-54.4-67.2-51.2-9.6-102.4-28.8-153.6-41.6-76.8-22.4-147.2-54.4-220.8-83.2-22.4-9.6-44.8-19.2-67.2-25.6-28.8-9.6-60.8 12.8-54.4 54.4 6.4 44.8 12.8 89.6 12.8 134.4 3.2 89.6 3.2 182.4 6.4 272 0 32 6.4 67.2 12.8 99.2 0 6.4 12.8 12.8 19.2 19.2 6.4-6.4 16-16 16-22.4 3.2-38.4 3.2-76.8 3.2-115.2 0-105.6 0-211.2-3.2-320 0-3.2 0-6.4 0-9.6 16 3.2 32 3.2 48 9.6 60.8 16 118.4 32 179.2 48 51.2 16 99.2 32 147.2 48 12.8 3.2 22.4 9.6 22.4 25.6 6.4 83.2 16 169.6 22.4 252.8 6.4 70.4 9.6 140.8 16 214.4-9.6 0-16 0-25.6-3.2-89.6-9.6-172.8-32-259.2-54.4-38.4-9.6-76.8-22.4-115.2-32-12.8-3.2-38.4 3.2-44.8 12.8-12.8 16-12.8 48-6.4 60.8 19.2 38.4 51.2 64 83.2 89.6 25.6 22.4 51.2 44.8 76.8 67.2 44.8 38.4 86.4 73.6 131.2 112 12.8 12.8 25.6 25.6 38.4 38.4 9.6 6.4 19.2 12.8 28.8 16 3.2 3.2 9.6 6.4 12.8 6.4 6.4-3.2 16 0 19.2-6.4 6.4-6.4 12.8-16 16-28.8 12.8-38.4 16-76.8 9.6-118.4-3.2-22.4-22.4-38.4-41.6-38.4s-44.8 22.4-48 38.4c0 6.4-3.2 9.6-3.2 19.2-70.4-41.6-124.8-99.2-176-156.8 0 0 0-3.2 3.2-3.2zM633.6 352c-12.8-22.4-70.4-25.6-86.4-51.2-19.2-22.4-12.8-38.4-25.6-48-19.2-12.8-38.4 0-41.6 16-3.2 12.8-3.2 25.6-3.2 41.6-6.4 0-16 3.2-25.6 3.2-6.4 0-16 0-22.4 0-38.4 3.2-48 19.2-32 48 3.2 3.2 32 22.4 51.2 35.2 9.6 6.4 16 9.6 19.2 9.6-6.4 3.2-73.6 12.8-80 16-12.8 6.4-12.8 19.2-12.8 32s6.4 25.6 19.2 28.8c12.8 3.2 28.8 0 41.6 0 51.2 6.4 99.2 9.6 150.4 16 9.6 0 22.4 0 32-3.2 3.2-3.2 9.6-6.4 12.8-6.4 12.8-3.2 25.6-22.4 25.6-35.2 3.2-41.6-60.8-44.8-86.4-60.8 25.6-9.6 70.4-9.6 64-41.6z" />
<glyph unicode="&#xe61f;" glyph-name="latest-news" d="M830.8 577.4c-0.2 41.4-8.6 75.2-25.8 103.6-13.8 23-32.6 44-57 64.2-7 6-10.4 13.8-13.8 22-1.2 2.8-2.4 5.6-3.6 8.4-8.4 17.2-29 29.6-44.8 25.8-10.2-2.4-20.6-4.4-30.8-6.4-13-2.6-26.4-5.4-39.6-8.8-8.4-2.2-16.8-4.4-25.2-6.6-32.8-8.8-66.6-17.8-100.6-22.2-3.6-0.4-6.8-2.4-9.2-3.8-0.8-0.6-1.8-1.2-2.6-1.4-1.6-0.8-3.2-1.4-5-2.2-3.6-1.6-7.6-3.2-11.2-5.8l-2-1.4c-5.8-3.6-12.2-8-16-14.4-6-10.2 2-24 12.8-31.2 9.8-6.4 21.2-8 34.6-4.8l14.4 3.4c14 3.4 28.6 6.8 43 9.4 38.6 7.2 82.4 12.2 118.8 4.6 2.2-0.4 4.4-1 6.6-1.4 7.2-1.8 14.8-3.6 22.4-3 7.4 0.6 13-1.4 19.4-6.6l10.6-8.6c36.8-30.4 54.4-62.6 56-101.4 0.8-22.8 1.4-47-0.2-70.6-2-29.6-4.8-61.2-11-91.6-6-29-14.2-58.2-22.2-86.4l-6-21.4c-0.8-3-3.8-7-6.4-8.4-30.2-15.8-54.8-28-77.4-38.6-11.8-5.4-24.4-10.4-36.4-15-6-2.4-12-4.6-18-7-4.4-1.8-8.8-3.6-13.2-5.4-8.2-3.4-16.4-7-24.8-9.8-10.4-3.6-20.6-6.6-31.2-9.6-5.8-1.6-11.6-3.4-17.2-5.2-7.6-2.4-15-4.8-22.2-7-8.6-2.6-17-5.4-25.6-8-12-3.6-24-7.2-36.8-11l-5.2-1.6 0.8 2c3.4 9.8 6.4 18.6 9.8 27.4 14.4 38 22.8 79.6 25.6 127.2 2 36.8 2 75.4-0.2 118.6-2 39.2-6 74.2-11.8 107.2-8.8 49.2-23.4 99.4-67.8 134.4-16.2 12.8-34 14.4-47.6 14.4-3.6 0-7-0.2-10.6-0.2-2.6-0.2-4.2-1.4-5.2-2-1.4-0.8-2.6-1.6-3.6-2.6-1.4-1.2-3.4-2.6-4.4-2.6-8.8-1.4-19.6-3.4-29.6-9.8-6.2-4-12.6-7.8-19-11.6-10.4-6-21-12.2-30.8-19.4-30.8-23.4-44.2-52.2-39.8-86 4.2-32.2 27.8-50 58.8-43.4 18.4 4 32.4 13.6 43.6 22.2 16.6 13 26.6 30.8 30.2 53.2 2 12.4 0.4 25-1 37.4l-0.4 4.2c0 0.4 0 0.8-0.2 1 0.2 0 0.2 0 0.2 0 17 3 30-1 40.2-12.6 23.4-26.2 32-59.4 37.4-88.4 12.2-64.2 16.6-128.6 13-191.2-3.6-65-17.2-122-41.4-174.4-4.8-10.2-9-18.2-18.8-20.2-3-0.8-5.4-3-6.4-4.2-10.2-11.8-14.8-26.8-13-42 2.8-23.6 17.4-37 40-37h1.4c15.4 0.4 29.8 4.8 47 14.2 7 3.8 14 8 21 12 13.2 7.6 26.8 15.6 40.6 21.8 45.4 20.2 92.2 39.8 137.4 58.8l24.2 10.2c25.8 10.8 51.8 21.6 77.8 32.2 17.2 7 34 14 51.2 21.2 15.4 6.4 24.8 17.2 28.4 32.2l0.8 3.8c2 8.8 4.2 17.6 5.6 26.6 1.6 9.4 3.2 19 5 28.4 4.4 24 8.8 48.8 10.4 73.6 3.2 46.4 3.8 93 3.6 148.6zM376.2 100.6v0 0 0zM515.4 501c-7.4-5.8-13.4-11.4-10.2-24.2 3-12.8 7.8-21.8 20.4-24.6 17.4-3.6 35.2-5.6 53.8-8.4-0.8-1.6-1.6-2.8-2.4-4-4-7.6 3-33.6 10.4-38 8.2-4.8 25.2-4 31.4 3.4 10.6 12.6 21.4 25.6 29.8 39.8 9.2 15.8 0 40.8-16 44.2-13 2.8-26.6 3-40 4.2-4.8 0.4-9.8 0-14.4 0-0.2 0.8-0.2 1.8-0.2 2.6 20.2 14.6 40.6 29 60.6 43.8 18.6 13.6 39 25 54 43.2 9.2 11.2 10.2 32.8-2.6 43.2-8.4 6.8-17.8 7-26.8 6.6-17.2-0.8-34.2-3-51.2-4.8-28.4-3-56.6-6.4-85-9.8-11-1.4-15.4-4.8-14.4-13.4 0.6-5.2 4.6-12.2 9-14.4 7.2-3.6 16-6 24.2-5.6 22.4 1 44.8 3.8 67.4 6 3.6 0.2 7.6 0 13.4 0-10-9.4-17.6-17.8-26.2-24.6-28-22-56.8-43.2-85-65.2z" />
<glyph unicode="&#xe620;" glyph-name="live-event" d="M798.2 501c-69.6 31-126.6 57.2-179.4 82.6-74 35.6-148.4 79.4-228 133.8-32.2 22.2-63.8 43.6-96.4 65-20.2 13.2-41 19.8-62.2 19.8h-2.6c-11.6-0.2-24.4-7.2-31.8-17.2-6.6-8.8-8.8-19.8-6-30.4 0.8-3 1.6-6 2.6-8.8 2.6-9.2 5.4-18.4 5.8-27.4 1.8-62.4 3.2-123.8 2.8-185-0.4-52.8-2-106.6-3.4-158.6-0.6-19.4-1.2-38.6-1.6-57.8-0.4-15.6-0.8-31.2-1.4-47-0.8-27.8-2-19.4-2-47.6l-0.2-12.8c0-17.8-1-45.8 13.2-83.2 3.2-8.8 9.2-17.8 18.2-27.8 3-3.4 9.2-5 13.8-5 2.2 0 4.2 0.2 6 1 5.4 2.2 8.2 12.2 7.6 17.8-0.8 5.8-2.4 11.6-3.8 17.2-2 7.6-4 15-4.2 22.2-1.2 45.4-1 52.8 0.2 88.8 1.6 44.8 3.6 53.4 5.6 97.6 2 41.6 3.8 83.2 5.4 124.8 1.8 49 3 99 4.4 147 0.8 26.2 1.4 52.6 2 78.8 0.2 3.2 0.6 6.6 1.2 10.2 0.2 0.4 0.2 0.8 0.2 1.4l7-2c47.6-13 91-38.2 132.8-62.6l3.6-2.2c95.8-56 183.4-101.6 267.4-139.6 15.2-7 50.4-30.2 63.4-39.8-105.8-39.8-223.8-91-360-155.6-0.8 8.2-1.8 16-2.6 24-2.4 20.8-4.6 40.4-6.2 60.2-1.6 21.2-3 43-4.2 64-0.8 14.6-1.6 29.4-2.6 44-0.2 4.8 0.6 6.4 0.8 6.8 0.2 0.2 2.2 1 6 0 5.2-1.4 10.4-2.6 15.6-4.2 11-2.8 22.4-5.8 33.6-9.2 11.6-3.6 33-10.8 49-16.6-12-5.8-26.8-12.4-38.2-17.6l-11.6-5.4c-16.6-7.6-18.8-18.8-16.6-33.6 2.8-19 19.4-21.2 31.6-21.2 15 0 47.6 11.4 68.8 21.8 1.4 0.8 4.2 2 7.8 3.4 35.8 15.4 72.4 34 73 54.4 1 28.4-96.6 74.6-116.4 83.6-5.6 2.6-11 5.2-16.6 7.6-29.8 13.8-60.6 28.4-94 35.2-9.2 2-18.4 3.6-27.4 3.6-10.6 0-20-2.6-28.4-7.6-11.6-7-13.6-36.4-12.2-44.8 2.6-14.2 3-26 3.8-38.4 0.4-10.4 1-21.2 2.8-33.6 8.6-59.2 5.6-119.2 2-175.8-1-16.2 0.4-32.6 2-48.6l0.8-10.4c0.4-6 3.2-12.6 7.4-17.6 8.6-10.8 20.6-17.8 38.6-22.2 2-0.6 4.6-1 7-0.8 5.4 0.8 11 1.8 17 3l9.2 1.8 0.8 1.4c9.4 15 20 32 40.4 40.2 13.8 5.8 27 13.2 39.8 20.2l9.8 5.4c55.6 30.4 115.2 62 177.6 83.6 35 12.2 71.2 22.8 106.2 33 13.8 4 27.4 8 40.8 12.2 12 3.6 32.6 12.6 36.4 31.8 6.6 32.4 3.2 53.2-31.8 68.8z" />
<glyph unicode="&#xe621;" glyph-name="maximize-value" d="M185.8 128.6c11.6 0.2 23.2 1.2 34.8 2 12.6 1 25.6 1.8 38.4 2 63.8 1.2 139.6 2.2 217.6 2.4h6.8c35.2 0 70.4-0.4 105.8-1 22.2-0.4 44.2-0.6 66.4-0.8 34.4-0.4 69-0.4 103.4-0.6l40.8-0.2 4 1.4 8.4 0.8c6.2 0.6 12.4 1.2 18.6 2.2 19 2.8 31.4 16.2 44.4 30.4 2 2.2 4.4 2.6 6.6 5 5.8 6.2 1.2 16.4-12.4 35.8-5.8 8.4-42.6 79.6-49 87.4-3.2 3.8-222 319.2-231.2 336.2-19 34.8-38.4 68.6-57.8 100.2-5.2 8.6-14 20.6-25.6 29-6.4 4.6-13.6 7-21.6 7-19.2 0-19.8-5.6-23.2-18.2-4.4-16-11.2-32.4-20.4-48.4-15.6-27.4-32-54.8-48-81.2l-25.2-42c-13.6-22.6-27-45.2-40.8-67.6-4-6.6-8.6-14.2-18.6-14.2-3.2 0-6.6 0.8-10.4 2.4-1.6 0.6-3.2 1-4.8 1-6.8 0-12.2-7-12.2-16v-9c0-21.4 0.2-43.6-15-66.2-42-62.4-68-122.6-79.8-184-1.4-7.6-10-12.8-14.4-14.6-3-1.2-6.2-2.2-9.2-3-10.2-3-16.6-5.2-19.2-12.8-6.4-18.6-3.4-36 9.6-52.8 6.4-8.4 15.4-11.8 30.2-11.8l3-0.8zM554.2 374.4c-14.8-31.6-33.4-56-56-84.6l-5.2-6.6-86.6 100.8 4.6 13.8 147.4-14.4-4.2-9zM655.4 421.6l132-186.4c0 0 27.2-33 8.6-35.8s-265.2-4.4-265.2-4.4l24.4 47.4c4.8 10.6 100.2 179.2 100.2 179.2zM475.6 650l13.8 1.8 122.4-155.2-5.8-4.4c-19.8-14.6-102.4-20-150-20 0 0 0 0 0 0-22 0-61.6 1-79.8 8.2l-8 3.2 107.4 166.4zM312.8 384l5.8 6.8 5.2-7.2c16-21.8 34-42.6 51.4-62.8 29.4-34.2 60-69.4 82.2-110.6l1.6-3-5.6-12.6-222 1.4-0.2 6.6c-1.6 32.4 52.2 146.6 81.6 181.4z" />
<glyph unicode="&#xe622;" glyph-name="medical-device-company" d="M447.6 314.2c-28.4 9.8-57.4 15-84.6 26.6-33.2 14-61.8 33-76.2 68-6.8 16.2-9.6 33.4-10 50.6-1.4 75.2-2.6 150.2-3.6 225.4-0.2 19.6 2.8 39.2 7 58.2 6 26.4 22.6 42.8 49.6 49.2 23 5.4 46.4 5.6 69.6 4.2 52.4-3.2 104.6-1.6 156.8-0.4 51.4 1 102.8 6.8 154 4 42.6-2.4 52.6-13 57-55.2 2.6-24.6 2.6-49.4 3-74.2 0.6-32.4 5.6-64.2 8.4-96.2 3.6-42.4 11.4-85 3-127-12.2-61.6-48-105.2-108.8-126-34.4-11.8-70-16.2-106.2-16.6-4.6 0-9.8 0.6-13.8-1.4-55.8-27.2-117.4-37.6-174.4-61.2-19.4-8-39.4-14.8-56.6-27.6-21.8-16.2-22-37-1-54.8 27-22.8 59.2-31.8 93.4-33 39.2-1.4 78.6-2.6 117.4 5 5 1 11.8 2.4 13.6-3.4 2.2-6.8-5-9.4-9.8-11.4-23.8-10.2-49.2-15.2-74.8-17.8-42.4-4.2-84.8-8-126.6 4.4-24 7-46.8 16.2-66.4 32.4-41 34-38.8 81.6 4.8 112.6 29.8 21.2 64.2 32.2 98.4 42.8 25.6 8.2 51.2 15.2 76.8 22.8zM340 610.8c-3-47.4-1-94.8 1.2-142.2 1.6-34.2 13-64.2 48.8-81.4 18-8.6 37.6-11.4 56.4-16.6 25.6-7.2 26.8-10.6 42.6 9.2 7.8 9.8 36.8 10 42.2-0.6 8.8-17.4 21.4-14.4 40.4-14.2 23.8 0.2 47.8 2.2 71 6.6 55.6 10.2 85.2 43.6 87.2 96.2 1.4 36.2-1.8 72.2-8.4 107.8-9 48.6-20.4 96.8-30.8 145.2-4.4 21-5.2 22-28.2 22.2-37.6 0.6-75.2 1.2-112.6-2.6-63.4-6.4-126.8-13.8-190.4-20.8-11.2-1.2-16.4-6.6-17.2-17.8-1.8-30.2-2-60.6-2.2-91zM563 585c21.6-4.8 42.6-9.4 63.4-14.2 14-3.2 26.8-10.6 29.8-24.4 3.4-15.6-9.2-25.2-21.2-33.2-7.8-5.2-16.4-8.4-25.4-11.8 7.8-2.6 14.8-6 21.2-10.6 15.4-11 15.6-28.2 0.8-40-5.4-4.4-11.4-8.2-18.4-9.6-28-5.8-54.6-15.6-81.8-24.2-20.6-6.4-35-4-34.8 20 0.2 7.8-4.8 8-10.4 7.2-13.2-1.8-26 0.2-38.8 2.8-14.8 3-21.6 12.8-24 27.2-2.4 14 2.2 23.2 14 30.4 18.2 11 39 15.4 58.8 22.2 7.8 2.6 15.6 5.2 23.6 7.8 0 1.4-0.2 2.6-0.2 4-12 1.4-24 3.2-36 4.4-29.2 2.8-58.6 5-87.2 12.8-12.6 3.4-21.6 10.4-23 24.6-2 18.8 2.8 28.2 21.6 31.2 30.8 5.2 62 8.4 93 12 55.2 6.4 110.4 14.4 166 8 19.8-2.4 30.8-10.6 29-22.2-2.6-16.4-17-16.6-29.2-18.6-29.8-4.2-60 0.4-90.8-5.8z" />
<glyph unicode="&#xe623;" glyph-name="member-benefits" d="M592.8 344.4c27.2-20.4 52.4-40 78.4-58.8 47-34 99-58.8 152.6-80.4 17.6-7 36.2-11.4 54.2-17.2 15.2-5 26.6-20 27.6-35.8 0.8-16.2-9.4-33.8-25-40-20.4-8-41.2-3-61.6 0-27.8 4-55.2 12-83.2 13.4-97 5-194 9-291.2 11.4-63.6 1.6-127.4 0.2-191.2-0.4-13.4-0.2-27-1.4-40.2-3.6-30.8-5.2-52.8 8.2-70.6 31.6-2.8 3.6-7 6-9.2 9.8-5.6 9.6-10.4 19.6-15.2 28.8 17.4 18.4 38.4 23.2 58 29.6 29.8 9.8 60.6 16.4 90.6 26.2 38.2 12.4 76.4 25.2 113.2 40.6s72 34.2 107.8 51.6c3 1.4 5.4 4 9.2 6.8-15.8 16.4-31 32-46.2 47.8-24.4 25-47.8 50.8-61.8 83-17.2 40-27.2 81.8-20.4 125.8 3.2 20.4 7.2 41 11.6 61.2 1.2 5.6 6 10.2 9 15.4 19.4 35.6 47.2 61.4 84.8 77.6 47.4 20.4 96.8 21.2 146.4 17.2 30-2.4 60.4-6.6 89.6-14 76.8-19.4 119-91.4 102.4-168.8-6.8-31.6-12.8-64.4-33.8-89-27-31.6-46.8-70-84.4-92-10.8-6.4-18.4-17.8-28.8-25.6-21.2-15.8-43-30.4-64.6-45.6-1.8-1.2-3.6-3-8-6.6zM443.2 579.8c1.2-0.2 2.4-0.6 3.6-0.8 0-27.2 4.6-47.6 14.8-70.6 19.4-43.4 48.8-79.6 80.2-114.6 6.2-6.8 11.4-5.6 18-1.2 25.2 17 51 32.8 75.4 50.8 59.4 44 103.4 98.4 110 175.6 3 35.8-6.8 74.2-48 88.4-55 19.2-111 28.4-168.2 10.6-30.2-9.4-55.2-27.2-65.8-58-8.8-26-13.4-53.4-20-80.2zM265.6 192.6c152 0 302.4 0 452.8 0-6.2 7.4-12.2 12.2-19 15.8-50.2 27.6-96.8 60.4-140.6 97-10 8.4-17.8 9.4-29.8 3.2-48.4-24.4-97-48.2-146.4-70.2-38-16.8-77.2-30.4-117-45.8z" />
<glyph unicode="&#xe624;" glyph-name="next-step" d="M857.6 803.6c-0.6 2.2-2.2 4-4.2 4.8-2.2 1-9.2 4.2-38.6 4.2-9.2 0-16.6-0.4-17.4-0.4l-5.6-0.4c-11-0.8-22-1.8-33-2.6-29.4-2.2-60.6-5.4-89.8-18.2-29.4-13-54.4-31.8-75-48.6-9.6-7.8-20.8-17.4-30.2-28.6-20-23.8-32.8-54-37.6-89.8-3.2-23.2-7.8-50-23.6-73.4-7.6-11-13.2-23.4-18.6-35.2-2-4.4-4-8.8-6.2-13.2-5 9.4-10.2 19-15.2 28.6-0.4 1-0.8 2.4-0.8 3.8 0 2.2 0 4.4 0.2 6.8 0.2 3.4 0.4 7 0.2 10.8-0.4 6.8-1 13.6-1.8 20.2-0.8 8.6-1.6 17.4-2 26-0.4 8.8-0.6 18-0.8 26.8-0.2 12.4-0.6 25.2-1.6 38-1.2 14.6-3.8 25.6-8.6 34-12 21.8-28.6 39.6-49.4 53.2-2.8 1.8-5.6 3.6-8.2 5.4-6.6 4.4-13.4 8.8-20.4 13-23.6 14.2-49.6 22.2-77.2 23.8-6.6 0.4-13.4 0.4-20 0.4-10.4 0-20 0-29.6 1.4-12.6 1.6-25 4.6-38 7.8-5.6 1.4-11.2 2.8-17 4l-3.6 0.8-0.4-0.4c-0.2 0-0.6 0.2-0.8 0.2-2.8 0.6-5.8 1.4-8.4 1.4-2.8 0-5-0.8-6.6-2.4l-2.4-2.4 0.2-3.2c0.2-7.8 29.8-43 38.8-50.2 20-16.2 29.2-34.6 29.2-58.4 0-5.8 0-11.8-0.2-17.6-0.2-23.6-0.2-47.8-1-71.8-1.4-47.8 19.4-103.4 82-116.4 25.6-5.2 45.8-5 65 0.6 9 2.6 17.2 6.2 26.2 9.8 1.8 0.8 3.8 1.6 5.8 2.4 0.4-1 0.8-1.8 1.2-2.8 2.8-6.6 5.2-12.8 6.6-19.2s2.6-12.8 4-19.4c6-28.6 12.2-58.2 15.8-87.4 5.4-43.8 8.4-88.8 11.2-132.2l0.4-5.8c1-15.8 4-27.6 9.6-38.6 4.4-8.4 16.6-16 25.8-16 2.8 0 5.2 0.6 7.2 1.8 1.8 1 2.6 1.2 2.8 1.2 0.6 0 2.4-1.6 3.8-2.8 0.8-0.8 1.8-1.6 2.8-2.4 7-5.6 17.2-8.8 24.6-7.4 7.8 1.6 16.4 12 16.8 20.2 0.4 9.2-2.4 18.2-4.8 26.8l-0.8 3c-1 3.6-2.4 6.8-3.8 10 25.4-6.4 49.6-12.6 71-28 7.6-5.6 12-16 10.8-26.6-1-9.4-6-16.6-13.6-20-30.8-13.6-59.2-20.2-86.6-20.2-1.6 0-3.2 0-4.8 0-47.4 1.4-86.6 5.4-124 20.4-3.2 1.4-6.4 3.2-9.8 5-2.6 1.4-5 3-7.8 4.2-13.6 6.6-18.2 18.8-12.2 32.8 6.6 15.6 19.6 25.6 32.8 33.8 4.6 2.8 16.6 10.6 10.8 23.4-2.8 5.8-7.8 9.2-14.2 9.2-3.4 0-6.6-0.8-9.4-1.6l-1.6-0.4c-2-0.4-4-1.4-5.8-2.6-4.2-2.8-8.6-5.6-12.8-8.4-10.4-6.6-21-13.2-30.2-21.8-13.4-12.2-21.8-29.8-24.4-52.6-2.4-19.6 6.2-36 25.8-50.4 26.8-19.4 57.2-26.2 91.6-32.2 23.4-4.2 47.2-6 70.4-7.8 10.2-0.8 20-1.2 29.4-1.2 28.2 0 53.2 3.4 76.8 10.6 25.4 7.8 51.6 18 70.6 40.2 12.4 14.6 26 34.6 19.6 61.8-4.8 20-16.8 36-36 47.8-35.2 21.6-75.4 32.6-123.2 33.8-6.2 0.2-6.4 0.6-7.2 6.2-1.8 12.2-3.8 24.6-5.8 36.6-1.8 11-3.8 22.4-5.4 33.8-1.2 8.8-1.4 17-0.6 24.2 4.6 38.8 12.4 71.6 23.8 100.4 1 2.8 2 5.6 2.8 8.4 3 10.2 5.2 16 13 17.8 17 4.2 37.2 8.8 57.8 12.4 7.8 1.4 16 2.2 24 3 10.6 1 21.6 2.2 32.2 4.4 26 5.8 51 19 76.4 40.4 40 33.6 64.8 74.4 75.8 124.4 4.8 21.4 11.8 43 18.6 63.8v0.2c1.2 3.4 3.2 7 5.4 10.6 2.4 4.2 5 8.6 6.6 13.4 0.4 1.2 3 5 4.8 7.6 6.2 10 9 14.6 7.6 19.2zM776.2 747c-2-6.4-4.2-12.8-6.4-18.8-4.2-12.2-8.4-25-12-37.8-10.8-38.4-32.2-68-64-88.4-20.8-13.2-45.2-15.8-66.6-16.4-4.2-0.2-8.4-0.2-12.6-0.2-16.2-0.2-32.8-0.2-49-6.2-2 3.8-2.4 8.2-1 14l1.4 6c5 23.8 10 46.4 23.6 65.6 8.8 12.4 17.2 22 25.8 29.2 13.2 11.2 30.8 25.4 49.8 36.6 17.4 10.2 37.2 15.8 57.4 16.2 7 0 14.4 0.2 23.6 0.2 6.2 0 12.4 0 18.6 0 3.8 0 7.6 0 11.4 0zM291 732.6c38.2-1.4 68.4-17 92.8-47.6 7.6-9.6 7.8-21.2 8-33.6v-2.6c0.4-19.6 0-35.6-1.2-50l-0.2-2.6c-0.8-9.4-1.6-20.2-6-26.2-10-14-27.4-18.8-40.2-20.2-6.8-0.8-14.4-0.6-22.2 0.4-18.6 2.6-25 10-25.8 30.8-0.8 19.4-1.2 39.2-1.8 58.4-0.2 7.6-0.4 15-0.6 22.6-0.6 22.2-3.4 47.6-17.6 70.8 1.8 0 3.4 0 5.2 0 3.8 0 6.8 0 9.6-0.2z" />
<glyph unicode="&#xe625;" glyph-name="numerous-offerings" d="M510.2 250c57.8 88.6 230.2 324.2 246 344.2 15.8 19.8-106.8-57.4-110.4-21.2 8.4 17 22.4 30 38.4 39.6 30.2 18.2 59.4 37.4 87 59.4 21.2 17 45.6 18 69.8 9.8 16.2-5.4 26-24.6 25-41.6-2-30-4.8-60.2-4-90.4 0.4-14.8 3.4-29.6 3.4-44.4 0-25-7.4-32.4-25.8-44.6-16.6-10.8-27 19.6-27 19.6s-9.2 23-7.8 32.6c1.4 9.6-7.4 57.2-6.8 68.6-10.2-6.8-48-61.6-53.4-69.6-41-59.2-80.6-119.2-118.4-180.6-38.4-62.4-74.6-126-112-188.8-12.6-21.2-32.8-36.2-60-34.4-14.6 1-26.6 8.4-33.4 22-3.2 6.6-7 14-7 21 0 30.2-16.6 54.4-30 79.2-25.8 47.6-50.4 95.8-75.6 143.8-13 24.8-24.8 50.4-37.4 75.6-1.8 3.6-39.4 107.4-35 78-0.4-5.6-8-74.8-9-79.8-3.8-21.2-12.6-38.8-36-27.4-25.4 12.4-31 35.4-32 60-1.8 41.2 19 89.4 18 130.8-0.2 6.4-0.6 12.6-3.2 18.2-12.6 27.2 7 64.4 46.8 65.4 27.2 0.6 48.4-11.6 67.6-28.8 11.6-10.2 20.4-22.6 29.2-35 12.6-18 27.6-33.8 44-48.6 10.8-9.8 17.8-23.6 17.8-23.6s10.4-13.2 8.6-34c-0.4-4.2-2.8-15.4-6-14.4-0.4-1-23.6-10.2-40 1.6-2 1.4-66.6 78.2-51 28.8 1.2-3.8 13.6-36.4 14.8-39.2 26.8-59.6 54-119 84.6-176.8 12.8-24 25.4-48.2 40.6-72.2 31.6 136 106.8 438 95.6 433.6-23.8-6.4-33.2-40.2-44-51.4s-22-31.4-44.6-30.4c-16 7.2-24 13.6-22.8 31.8 0.8 13.6 6.4 25.6 14 36.6 12.8 18.2 25 37 39.4 53.8 17.2 20 29.2 45.2 55.8 56.2 23.6 9.6 55.4 7.4 74.2-14.6 22.8-26.4 41.6-55.4 63-82.8 8.2-10.6 15.6-20 27.6-26.4 8.8-4.6 6.8-10 0-17.4-10.6-8.6-30.6-10-45.8-6.6-15.6 2.8-42.4 41-54 45-15 5.2-57.8-259-72.8-345.8-4.2-24.8-5.8-50-8.6-75.2-0.8-3-1.4-5.6 2.6-9.2z" />
<glyph unicode="&#xe626;" glyph-name="nurse-stories" d="M847.4 536.6c-1.8 1.2-3.6 2.2-5.4 3.4-5.6 3.2-10.8 6.4-14 10.4-9.2 11.4-18 23.6-26.6 35.2-6.2 8.4-12.2 16.8-18.6 25-6.6 8.6-13 17.4-19.6 26.2-17 23-34.6 46.8-54.8 68-31.2 33-65.8 63.8-99.2 93.4l-12 10.8c-19.2 17.2-38 22-56.2 14.6-9.4-3.8-19.2-9.6-28-17l-14.2-11.8c-27.6-22.8-56-46.4-82.8-71.2-33.2-30.4-65-62.6-95.6-93.4-42-42.4-84.2-86-125.4-129-10.4-11-20.8-24-32.2-40.6-4-5.8-5.2-14.8-3.2-23.8 1-4.4 3.6-12.2 10-15.8 10.8-6 25.2-1.8 35.6 11l3.4 4.2c3.2 4.2 6.4 8 9.8 11.4 8 7.6 16.4 15.2 24.6 22.6 12.6 11.4 25.4 23.2 37.8 35.4 17.2 17 34.2 34.6 51.2 52 14 14.2 27.8 28.6 42 42.6l11 11c18.6 18.8 37.8 38 58 55.4 19.8 17 40.8 33.2 61.4 48.8 9.2 7.2 18.6 14.2 27.8 21.6 5.8 4.6 9.8 6.6 13 6.6 1.4 0 3.8-0.4 8.2-3.2l18.2-11.6c21-13.2 42.6-26.8 63.2-41 39.4-27.4 68-66 91.6-100.2 8.2-12 16-24.2 23.8-36.4 7.4-11.6 14.8-23.2 22.4-34.6 1-1.6 1.6-2.6 1.8-2.8-0.4-0.4-1-1-2.2-1.8-23-15.8-45.8-31.6-68.6-47.4l-33.6-23.2c-29.6-20.6-60.4-41.8-86.8-68.6-14-14.2-28.8-28.2-43-41.6-9.4-9-19-18-28.4-27-1.2-1.2-2-1.8-2.2-2-0.2 0.2-0.6 0.6-1.2 1.2-2.6 3.2-5.4 6.4-8.2 9.6-6 7-12.2 14.2-17.8 21.6-4 5.2-7.6 11-11 16.6-6 9.4-12.2 19.2-20.2 27.6-21.4 22.8-44.2 43-64 60-11.2 9.8-24 20.8-40.8 20.8-5.8 0-11.6-1.4-17.4-4-10.2-4.8-20.6-11.4-29.8-19.2-6.6-5.6-12.8-11.4-19-17.4-8.4-8-16.2-15.4-24.8-22-12.2-9.2-23.6-19-27.4-36.6-2-9-0.4-16.8 1-23.8 0.4-2 0.8-4 1.2-6 2.4-16.4 12-26.4 20.4-35.4 2-2 4-4.2 5.8-6.4 7.4-8.6 16.2-16 24.6-23 4.2-3.4 8.4-7 12.4-10.6 8.4-7.8 16.8-15.6 25.4-23.2 11-10.2 22.2-20.4 33.4-30.6 3.2-2.8 6.6-5.4 10.2-8 4-2.8 7.6-5.6 10.6-8.6 9.2-9.4 18-19.6 26.6-29.4l6.4-7.2c10.8-12.4 21.6-25 32.4-37.4l7.8-9.2c2-2.4 4-5 5.8-7.6 4.8-6.4 9.6-13 16.8-17.6 6.8-4.4 15.8-6.6 26.4-6.6 19.4 0 40 7.6 51 19 10.6 10.6 24.2 25 37 40 25.6 30 51.8 55.8 79.8 78.8 16.4 13.4 31.8 28.2 46.8 42.4l8.8 8.4c13.6 13 27.2 26.2 40.6 39.4l19.2 18.6c3 2.8 6 5.8 9 8.6 6.6 6.2 13.4 12.6 19.6 19.4 4.8 5.2 7.2 12.6 6.8 20.8-0.4 9.8-4.6 19-11 25-9 8.2-17.6 12-26.2 12-13.8 0-24.8-10-33-18.6-10.2-10.8-20.2-21.6-30.2-32.4-18.8-20.4-38.2-41.6-58.2-61.6-9.8-9.8-20.6-18.4-32-27.6-7.8-6.2-15.6-12.4-23-19-19-16.8-37.6-33.8-56.2-51-10-9.2-20.2-18.4-30.2-27.6-1.8-1.8-4.6-3.8-7-3.8-2.8 0-6.4 3-8.8 5.6l-3.2 3.4c-19.4 20.6-39.4 42-60 62.2-42.6 41.6-84.8 81.8-120.6 115.6-0.6 0.4-0.8 0.8-1 1 0.4 0.4 0.8 1 2 2 8.4 7.4 15.4 12.8 22.2 16.6 1.2 0.6 5.6 1.2 7.8 0.4 4-1.4 8.4-5.2 12-8.4 7.6-6.8 15.8-14.2 22.8-22 9.2-10.4 18.4-21.4 26.8-32.8 3.2-4.4 6.2-9 9.2-13.6 4-6.2 8-12.4 12.8-18.4 6.2-7.6 13-15 19.6-22.4 7.2-8 14.8-16.2 21.4-24.6 9.8-12.2 23.8-19.2 38.6-19.2 11.8 0 23.2 4.6 32 13 25.4 24 52 50 74 81.4 18.2 26 42.8 50.2 77.2 76 5.2 3.8 10.4 7.8 15.4 11.8 15.2 11.8 31 24 47.6 33.4 19.4 11.2 40.6 20.6 61 29.8 7.6 3.4 15.2 6.8 22.6 10.2 14.2 6.6 26.2 27.6 26.4 45.6 4 16-11.2 25.8-17.2 29.4z" />
<glyph unicode="&#xe627;" glyph-name="online-courses" d="M466.8 620c17.2 1.4 33.2 2.4 49 3.8 29 2.4 57-0.4 80.6-19.6 23.2-18.8 35.8-44.4 40.4-73.6 7.4-46.6 16-93.4 19.4-140.4 3.4-48.2 3-96.8 0.8-145.2-1.4-31-10-62.8-34.4-83.8-19.6-16.8-43.6-29.2-67-40.8-43.6-21.6-91-22.4-138.2-19-17.4 1.2-35.2 5.4-51.8 11-19.6 6.6-31.2 24-42.8 40.2-19.8 27.2-30.4 58.2-34.8 91.2-3.6 27.8-3.6 56-8.6 83.4-10.2 56.8-3.2 114-6.4 171-1.2 23.6-0.2 46.6 9.2 69 12 28.4 33 46.6 61.6 56.8 15.4 5.4 30.8 10.6 47.8 9.2 3.4-0.2 9.8 7 10.6 11.4 4.4 27.4 13.6 52.6 31.6 73.8 14.6 17.2 30.4 33.4 46 49.6 17 17.4 39.2 19.4 61.4 17.6 32.6-2.8 64.8-0.4 96.8 4.6 33.2 5.2 66.6 11.2 98.8-4.2 5.8-2.8 12-9 13.8-15 2.6-8.4-5.2-13.2-12-16-27-11.2-54.6-18.2-84.4-18.6-25.6-0.4-51-5.6-76.6-8.6-17.8-2-35.8-3-53.2-6.8-9.2-2-18.6-7.8-25.2-14.4-9.6-9.8-16.8-21.8-24.6-33-10.6-15.8-8.4-33.8-7.8-53.6zM343.6 409.2c-0.2-1.4-0.4-2.8-0.6-4.2-2.2-47.6 4.2-94.6 12.2-141.2 5.8-33.8 17-66.6 41.6-92.2 6.6-7 17.4-13.2 26.6-14 39-3.4 77.2 1.4 112 20.8 15.2 8.6 33.8 13.4 40.8 32.4 2.4 6.6 5.6 13 6.8 19.8 3.8 20.4 7.6 40.8 10 61.4 1.2 10.4-0.8 21.2-1 32 0 26.8 0.4 53.6-0.2 80.4 0 3.6-5.4 9.6-8.8 9.8-14.8 1.4-29.6 2-44.4 1.4-49.6-1.8-99-4.4-148.4-6.4-15.2-0.6-30.8 0-46.6 0zM452.6 456c0.6-0.4 0.8-0.8 1.2-0.8 41.4 4.2 82.8 8.4 124.2 13.2 1.8 0.2 5.2 5.2 4.6 7.2-5.2 22-9.4 44.4-16.8 65.8-7.4 21.6-22.4 36.8-47.4 38.2-14.2 0.8-28.2 1.8-42.4 3-7.6 0.8-9.2-2.2-9.4-9.4-1-22.6-2.2-45.2-4.6-67.6-2-16.6-6-32.6-9.4-49.6zM341.6 442.8c14.4 1.8 26.8 3.4 39.4 4.8 15.6 1.6 20.4 6.8 20.8 23.2 0 2.6 0.2 5.2 0.2 7.8-1.4 24.8-3 49.6-4.4 74.6-0.4 7.8-0.8 15.4-1.2 24.2-5-1.2-8.2-2-11.4-2.6-23.8-5.8-38.6-20-40-45.4-1.2-28.6-2.2-56.8-3.4-86.6z" />
<glyph unicode="&#xe628;" glyph-name="preparation-resources" d="M777.4 489.2c-1.8 21.4-5.8 42.8-7.2 64.2-1.6 26.6-0.8 53.4-2.2 80-0.4 7-4.6 14-8.2 20.4-6.8 11.8-19.6 13.6-31.2 16.6-8 2.2-12 6-13.6 14.2-1.6 8-4.8 15.6-8 23.2-6.2 14.8-18.4 21.4-33.2 17-11.2-3.2-21.4-9.4-32.4-13-36.4-12-73.4-22.6-109.4-35.4-38.6-13.8-76.2-29.8-114.4-44.8-18.6-7.2-37.4-13.8-56.2-20.8 35.6 56 79.4 103 134.2 141.8 0.4-3.6 0.4-5.6 0.6-7.6 1.6-20.4 3.6-29.2 26.4-38.4 5.8-2.4 22.2-5.6 30-1.2s12.4 16.6 10.8 30.2c-2.2 18.8-3 26.2-5 45-0.6 7.2-1.8 14.4-3.6 21.2-6.8 25.2-28.6 26-46.8 12.6-9-6.6-15.6-16.2-23.6-24-43.4-42-86.8-84.2-130.4-126-26.4-25.2-67.8-49.6-94.2-74.8-9.8-9.4-16.2-20.8-14.6-35.2 0.2-1.6 2-58 3.4-81.4 1.6-26.6 1.2-53.6 3.2-80.2 2-25.2 7.2-50.2 8.8-75.4 3.8-64.6-1.2-128.8-5.8-193.2-1.2-16.2 8.2-35 28-45.8 11.4-6.2 22.8-8.4 35.2-2.6 7.8 3.6 15.6 7.4 23.6 10 45.6 14 91.6 27.4 137.2 41.6 37.4 11.6 74 25.6 111.8 35.6 30.8 8.2 62.8 11.8 94 18.6 23.4 5.2 35.8 23.8 35.8 47.8 0 50.8 0.6 101.6 1.6 152.4 0.2 17 1.4 17.8 18.6 23.8 18.8 6.6 35.8 15.8 38.2 37.6 1.4 15.2-0.2 30.8-1.4 46zM713.6 462c-0.6-4-4.8-8.2-8.4-10.6-9.4-6.2-19.6-11.4-29.4-17.2-18-10.8-19.6-29.4-20.2-47.2-0.8-22.4 1-44.8 1.6-67.2 0.6-24.6 1.4-49 1.8-73.6 0.2-9-0.4-16.8-12-20.6-34.6-10.8-68.8-22.6-103-34.8-46.4-16.4-92.4-34-139-49.6-21-7-43.4-10.2-65-15.8-9.4-2.4-12.4 1-12.8 9.8-1.8 40.8-4.6 129.2-4 129.4-4.4 51.6-10.4 103-12.8 154.6-1.8 41.2 0.6 82.6 1.4 124 0.4 15.4 10.8 25.4 20.6 35.4 1.4 1.4 3.8 2 5.8 2.2 41.2 3.6 78.4 20.6 116 35.6 56.2 22.6 112.4 44.2 171.8 57 4.2 1 8.6 1.4 12.6 2.6 5.8 1.6 8-1 8.4-6.2 0.2-2.6 1-5 0.8-7.4-3-25 13.8-39.8 32.6-42.8 25-4.2 24.6-19.4 26-36.4 2.6-32.4 5-64.8 7.2-97.2 1-8.2 1.4-16.2 0-24zM573.4 531c7.4 4.8 10.6 12.4 6.8 21.2-3.8 9-11.4 8-19 6.4-1.4-0.4-2.8-0.8-4.2-1.2-40-9.2-80.2-17.4-120-27.6-23.2-6-45.6-14.8-68.2-23.4-4.6-1.8-8-7.2-11.8-10.8l2.2-1.6c45.8 9.8 91.6 19.6 137.2 29.4 0.4-1.2 0.6-2.4 1-3.6-12-7.8-24.4-15.2-35.8-23.6-14.2-10.4-32-17.4-32.6-40.2-0.2-9.4 1.8-14.2 10-16.6 5.4-1.6 11.2-2.8 17-3.2 12-0.4 24-0.2 36-0.2l0.6-3.6c-12.2-5.6-24.8-10.4-36.4-17-13.4-7.6-30.4-11.8-31-32.8-0.2-9.6 1.8-16.6 12.2-18.4 10-1.6 20-2.4 30-2.6 13.8-0.4 27.6-0.2 41.4-0.2 0.2-1 0.4-2 0.6-2.8-17.8-12.6-33.4-26.8-37.4-49.4-0.8-4.6 2.2-10.2 4.2-15 0.6-1.4 4.6-3.2 5.8-2.6 6.6 3.8 14.4 7.2 19.2 12.8 12.2 14.6 27 25.6 44.2 33.6 8.8 4.2 16.6 9.8 25 15 9.4 5.8 9.6 16.4 9.2 24.8s-9.4 12.8-18.4 13.6c-11.8 1-23.8 1.8-35.6 2.8-9 0.8-17.8 1.6-28 2.4 19.8 9.4 37.6 18.2 55.6 26.6 9.4 4.4 12.4 13 12.2 21.8-0.2 9-6.2 16.2-15.2 18.2-16.4 3.6-33.2 6-49.8 9-4.6 0.8-9 2.4-16 4.4 14.2 8.4 25.6 15.2 36.8 22.2 17.6 10.6 35.2 21 52.2 32.2z" />
<glyph unicode="&#xe629;" glyph-name="president-speeches" d="M326.4 668.8c89.6 79.4 195.6 106.2 219.2 110.6 50.2 9.4 100.6 4.8 149.6-7.6 76-19.4 133.6-67.2 162.8-147.8 8-22 8.6-48.2 8.2-72.4-0.8-46-18.2-86.6-43-123.4-31.2-46.6-70.2-84.6-114.8-115.6-7.2-5-14.6-10.4-22.2-14.4-11.2-6-17.2-15.8-20.4-28.4-11-43.6-21.6-87.6-34-131-9.2-32.4-35.4-33.4-55.6-15.6-15 13-24.6 33.6-35.4 51.6-16 26.6-31.4 53.6-46.4 80.8-3.8 7-7 16.2-6.4 24.2 0.8 15 11.6 19.8 21.6 9.8 16-15.8 31-33 46-50 6.2-7 11.4-15.2 17-22.8 1.4 0.2 2.6 0.4 4 0.6 5.6 27.8 11 39.4 16.2 67.4 2.8 15 2.6 15.6 6.4 30.2 4.8 18.4 12.6 34 31.8 41.4 43.8 28 77 53 110.2 80.2 32.6 26.8 51 66.8 60.8 111.2 9.2 41.6-16.4 94.8-53.2 124.6-32.4 26.4-62.2 43-100.8 47.6-92.2 11.6-172.4-22.4-246.8-78.4-48.8-37-93.2-79.2-129.8-130.4-22-30.8-34.2-52-43.2-88.8-13.8-57.2 17.2-87.8 47-99s78 3.8 110.8 15.4c21.4 7.6 105.8 59.2 123.6 78.4 3.6 3.8 8.8 6.4 11.6 10.6 19.6 27.6 25.6 61.2-6.4 65.6-23.8 3.2-46.6-1.8-68.8-11-15.4-6.4-30.8-13.2-45.8-20.2-20-9.2-36-6.2-34 7.8 2 13.8 32.4 48 55 67.2 52.4 44.4 105.8 30.8 152.4 1.6 9.8-6.2 18-16 26.2-25.2 22.8-25.2 19.8-53 6-81.8-10.6-22.2-25.6-40.2-43.2-56.4-46.6-43.2-98.4-76.6-155.8-99.4-50-20-100.6-23.2-152.4-10.4-30.6 7.6-55.6 26-76.6 50.4-11.8 13.8-19.4 30.4-20 50.6-1.4 55 12.4 107.2 39.8 151.4 5.2 7.8 39.4 71.4 128.8 150.8z" />
<glyph unicode="&#xe62a;" glyph-name="arrow-next" horiz-adv-x="594" d="M430.16 448l-430.080 430.080 81.92 81.92 512-512-512-512-81.92 81.92z" />
<glyph unicode="&#xe62b;" glyph-name="arrow-forward-solid" horiz-adv-x="614" d="M614.4 448l-614.4-512v1024l614.4-512z" />
<glyph unicode="&#xe62c;" glyph-name="arrow-forward-stroke" horiz-adv-x="663" d="M144.565 960l-144.565-144.565 373.459-367.435-373.459-367.435 144.565-144.565 518.024 512z" />
<glyph unicode="&#xe62d;" glyph-name="facebook" horiz-adv-x="1051" d="M659.931 450.011h-89.417c0-141.531 0-316.343 0-316.343h-131.109c0 0 0 172.8 0 316.343h-62.354v112.457h62.354v72.777c0 52.114 25.051 133.12 133.12 133.12h97.829v-108.251c0 0-58.331 0-70.766 0s-27.063-6.217-27.063-31.269v-66.56h99.84l-12.434-112.274z" />
<glyph unicode="&#xe62e;" glyph-name="linkedin" horiz-adv-x="1019" d="M793.874 198.217c0-22.857-18.651-41.691-41.691-41.691h-486.949c-22.857 0-41.691 18.651-41.691 41.691v493.349c0 22.857 18.651 41.691 41.691 41.691h486.949c22.857 0 41.691-18.651 41.691-41.691v-493.349zM608.64 516.754c-45.714 0-66.56-25.051-76.983-43.703v0 0 0 37.486h-85.394c2.011-25.051 0-260.206 0-260.206h85.394v145.737c0 8.411 0 14.629 2.011 20.846 6.217 14.629 20.846 31.269 43.703 31.269 31.269 0 43.703-22.857 43.703-58.331v-139.52h87.406v149.943c0 78.994-43.703 116.48-99.84 116.48zM352.64 635.246c-29.074 0-47.909-18.651-47.909-45.714 0-25.051 18.651-45.714 47.909-45.714v0c29.074 0 47.909 20.846 47.909 45.714-0.183 27.063-16.823 45.714-47.909 45.714zM308.937 250.331h87.406v260.023h-87.406v-260.023z" />
<glyph unicode="&#xe62f;" glyph-name="menu" horiz-adv-x="1463" d="M1353.143 155.429h-1243.429c-62.171 0-109.714-47.543-109.714-109.714s47.543-109.714 109.714-109.714h1243.429c62.171 0 109.714 47.543 109.714 109.714s-47.543 109.714-109.714 109.714zM1353.143 557.714h-1243.429c-62.171 0-109.714-47.543-109.714-109.714s47.543-109.714 109.714-109.714h1243.429c62.171 0 109.714 47.543 109.714 109.714s-47.543 109.714-109.714 109.714zM109.714 740.571h1243.429c62.171 0 109.714 47.543 109.714 109.714s-47.543 109.714-109.714 109.714h-1243.429c-62.171 0-109.714-47.543-109.714-109.714s47.543-109.714 109.714-109.714z" />
<glyph unicode="&#xe630;" glyph-name="rss" d="M0 415.532c127.376 0 247.259-49.951 339.668-139.863 89.912-89.912 139.863-212.293 139.863-339.668h197.307c0 372.137-302.205 676.839-676.839 676.839v-197.307zM0 762.693c457.054 0 826.693-372.137 826.693-829.19h197.307c0 566.946-459.551 1026.498-1024 1026.498v-197.307zM272.234 73.366c0-74.927-59.941-134.868-137.366-134.868-74.927 0-137.366 59.941-137.366 134.868s59.941 134.868 137.366 134.868c77.424 0 137.366-59.941 137.366-134.868z" />
<glyph unicode="&#xe631;" glyph-name="search" d="M1024 77.146l-246.314 246.314c38.746 63.654 60.886 138.378 60.886 215.87 0 232.476-185.427 420.67-417.903 420.67s-420.67-188.195-420.67-420.67c0-232.476 188.195-420.67 420.67-420.67 80.259 0 154.984 22.141 215.87 60.886l246.314-246.314 141.146 143.914zM160.519 539.33c0 143.914 116.238 260.151 260.151 260.151s260.151-116.238 260.151-260.151c0-143.914-116.238-260.151-260.151-260.151-143.914 2.768-260.151 116.238-260.151 260.151z" />
<glyph unicode="&#xe632;" glyph-name="publishing-groups" d="M510 208.2c40.6-2.2 81-4.8 121.6-5.6 24.8-0.4 40.2 21.2 36.8 45.4-3.8 25.8-8.4 52-7.2 77.8 3.2 67.8 7.2 102 15 169.2 8.2 70.2 9.2 99.8 18.6 169.8 4 30 3 51.4 3.4 88.8 0.2 16.6-21 24-37.6 21-75.8-13.4-152.2-8-228.4-10-21.6-0.6-43-1.4-64.6-3.2-4.8-0.4-13.6-6.8-13.2-8.6 1.6-6.6 5.2-13.6 10.4-17.8 4.2-3.6 11.4-4.2 17.4-4.6 23-1.4 45.8-2.6 68.8-3.2 53-1.4 117.2-7.6 170.2-9 4-0.2 11-4.8 11.4-8 4.8-35.2 0.8-42.6 0.2-77.8-0.6-43.8-8.2-69.6-12.6-113.6-4.4-44.8-8.8-89.6-12-134.4-3-41.6-4.2-49.6-7-91.2-1.4-20-2.2-20-22.8-21.2-5.6-0.4-11.2-1.4-16.8-1.8-63.6-3-127.2-7.2-190.8-8.6-34-0.8-49.6 1.2-55.2 34.8-0.2 1.4-0.6 2.8-0.6 4.2-3 67.8 9 102 7.4 169.8-0.8 34.6 1.8 69.2 3.4 103.6 0.2 4.2 2.6 10.8 5.4 11.6 16 4.6 32.2 7.6 51.4 12-22.4-28.8-28.2-39.8-2.4-66 14-14.2 33-23.4 50.2-34.2 8.4-5.2 17.8-8.8 29.8-14.8-9.4-8.6-15.4-16.2-23.2-20.6-24.2-14.2-49-27.2-73.4-40.8-11.2-6.2-17.6-19.8-12.2-28.6 10.2-16.4 21.2-32.4 43.4-34.4 14.4-1.2 28.8-4 43.2-5.4 11.6-1.2 21.4-3.4 27.6-15.2 3-5.4 10.4-12.4 15.6-12.2 20.6 1.2 40.4 5.8 53.2 25 11.4 17.2-0.8 49-21.2 54.4-6.8 1.8-13.4 4.4-19 6.2 14.2 11.2 29.2 20.8 41.6 33 20 19.4 20.8 48 0.4 67.4-16 15.2-35.6 26.4-53.8 39.4-5.8 4.2-12 8-20.2 13.4 7.2 3.8 11.8 6 16 8.2 21 11.2 42 22.4 62.8 34 18.6 10.4 24.4 44.4 1.8 54.8-8.4 3.8-18.8 5-28 4.6-61.2-2.6-122.2-5.4-183.2-9.4-17.8-1.2-35.6-5-52.8-10-22.4-6.6-29.4-21.4-25.2-44.6 3.4-18.4 7.2-37 7.8-55.4 1.2-38.8 2.4-77.8 0-116.4-4-64.8-10-96-16.6-160.6-2.8-28.2 22-61.6 50.6-63.4 8.6-0.6 17.4 1.6 26.2 2.8 63.2 8.2 125.8 2.8 188.4-0.6zM765.4 664c-15 9.2-30.2 5.6-40-5.2-12.4-14-13.4-32.4-14-48.8-1.6-45.6 2.2-91.6 0-137.2-3-63.4 1.6-93.2-3.6-156.6-1.8-22.2 1.4-44.6-1-66.8-2.4-22.4-3.2-44.8-6.6-67-0.6-4-12.4-9.2-15.8-11-4.8-2.4-10.8-2.4-16.4-2.4-84-0.8-176.8-0.8-260.6-2.8-20-0.6-40.4-6.8-59.2-13.8-6.8-2.6-9.6-15.6-16.8-28 14-1.6 23.4-3.8 32.8-3.8 42.2 0.8 84.2 3.2 126.4 3.4 75 0 149.8-1.4 224.8-1.6 10.2 0 21.2 2.6 30.4 7 22 10.8 24 32.6 23 53-1.6 39.2-0.6 78.2-1.4 117.4-2.6 123.2-5 214 11.2 335.4 2 13.4-3.8 23.2-13.2 28.8z" />
<glyph unicode="&#xe633;" glyph-name="quote" d="M924 583.4c-8 3.4-16.8 3.8-24.4 3.8h-6.2c-17 0-25.8 0.6-34.4 1-8.4 0.4-16.2 0.8-30.4 0.8h-8.6c-134.6-1.4-175.4 1.8-310.4 16-4.2 0.4-8.4 0.8-12.4 0.8-6 0-23.8 0-34.2-17.6-3.2-5.2-4.6-11-5.8-16.2-0.6-2.2-1-4.4-1.8-6.6-9-27.4-25.8-50-43.4-73.8-8-10.8-16.2-21.8-23.6-33.4-8.4-12.8-18-25.4-28.4-38.8-1.6-2-3.2-4-4.8-6.2 0 0.6 0 1.4 0 2-1.4 22.8-2.6 45.6-3.8 68.4-1.2 22.6-2.4 45.2-3.6 67.8-2 29.8-28.4 50.6-60.6 44.4-18-3.6-37.2-7-56.2-7h-10.4c-29.6 0-41 0.4-55.8 1-11.8 0.4-25.8 0.8-52.6 1.4h-2.2c-5 0-20.2 0-23.4-16-1.6-8-5.2-27 14.2-31.8 12.8-3.4 28.8-7.8 44.6-8 38.8-0.6 51.4-0.6 68.8-0.6l53 0.2c6.6 0 6.8-0.4 7.4-4.8 2.2-14 4.6-28.2 7-42.2 3.8-22.4 7.6-44.6 10.6-66.8 3-22.6 4.8-44.8 5.2-65.8l0.2-5.8c0.4-16.8 0.8-35.8 20.2-49.8 8.2-6 17.2-9.2 25.6-9.2 10.4 0 19.6 5 25.8 13.8 8.4 12.4 15.8 25.4 23 38.2 4.2 7.4 8.4 14.8 12.8 22 9.6 15.8 19.6 31.6 29.4 47.4 20.8 33.4 42.4 68 62.2 102.8 9.4 16.8 22.4 18.6 40.8 19.2 20.2 0.6 36 1.4 50.2 2 27.4 1.2 49 2.2 87 2.4 55.2 0.2 82.2 0.2 112 0 19.2 0 39.8-0.2 69.6-0.2h25.8c14.4 0 29 3 40.2 5.6 7.4 1.8 16.2 11.8 15.4 19.6 0 7.8-6.4 16.8-13.6 20z" />
<glyph unicode="&#xe634;" glyph-name="twitter" horiz-adv-x="1051" d="M782.811 598.034c0-6.217 0-10.423 0-16.64 0-170.606-129.097-368.457-368.457-368.457-72.777 0-141.531 20.846-197.669 58.331 10.423-2.011 20.846-2.011 31.269-2.011 60.343 0 116.48 20.846 160.183 56.137-56.137 2.011-104.046 37.486-120.686 89.417 8.411-2.011 16.64-2.011 25.051-2.011 12.434 0 22.857 2.011 33.28 4.206-58.331 12.434-104.046 64.549-104.046 126.903v2.011c16.64-10.423 37.486-14.629 58.331-16.64-35.291 22.857-58.331 62.354-58.331 108.251 0 22.857 6.217 45.714 16.64 64.549 64.549-79.177 158.171-129.097 266.423-135.314-2.011 10.423-4.206 18.651-4.206 29.074 0 70.766 58.331 129.097 129.097 129.097 37.486 0 70.766-16.64 93.623-41.691 29.074 6.217 56.137 16.64 81.189 31.269-10.423-31.269-29.074-56.137-56.137-70.766 27.063 2.011 52.114 10.423 74.971 20.846-12.8-25.051-35.657-47.909-60.526-66.56z" />
<glyph unicode="&#xe635;" glyph-name="youtube" horiz-adv-x="1048" d="M281.492 386.803h40.080v-198.060h37.734v198.060h40.080v33.433h-117.897v-33.433zM517.479 551.429c4.496 0 8.994 2.151 13.293 4.496 2.151 2.151 4.496 6.648 4.496 11.146v102.452c0 4.496-2.151 6.649-4.496 8.994-2.151 2.151-6.649 4.496-13.293 4.496-4.496 0-8.995-2.151-11.146-4.496-4.496-2.151-4.496-4.496-4.496-8.994v-102.452c0-4.496 2.151-8.994 4.496-11.146 2.151-4.496 6.648-4.496 11.146-4.496zM601.943 362.365c-4.496 0-11.146-2.151-15.642-4.496s-8.994-6.648-15.642-11.146v73.514h-33.433v-231.492h33.433v13.293c4.496-4.496 8.994-8.994 15.642-11.146 4.496-2.151 11.146-4.496 17.792-4.496 11.146 0 17.792 2.151 22.289 8.994 4.496 6.649 8.994 15.642 8.994 26.785v93.458c0 13.293-2.151 24.44-8.994 31.087-6.649 11.146-13.293 15.642-24.44 15.642zM599.792 228.827c0-4.496 0-8.994-2.151-11.146s-4.496-4.496-8.994-4.496c-2.151 0-6.649 0-8.994 2.151-2.151 2.151-4.496 2.151-8.994 6.648v106.751c2.151 2.151 4.496 4.496 6.649 4.496 2.151 2.151 4.496 2.151 6.648 2.151 4.496 0 8.994-2.151 11.146-4.496 2.151-2.151 4.496-6.648 4.496-13.293l0.195-88.766zM477.398 230.978c-2.151-4.496-6.649-6.649-11.146-8.994-4.496-2.151-6.649-4.496-8.994-4.496s-4.496 0-6.649 2.151-2.151 4.496-2.151 8.994v131.387h-33.434v-142.337c0-11.146 2.151-17.792 6.649-22.289s8.994-6.649 17.792-6.649c6.649 0 13.293 2.151 19.943 4.496 6.649 4.496 13.293 8.994 19.943 15.642v-17.792h33.434v169.122h-33.434v-129.041l-1.956-0.196zM604.288 709.407h37.735v-144.681c0-4.496 0-6.649 2.151-8.994 2.151-2.151 4.496-2.151 6.649-2.151s6.648 2.151 11.146 4.496c4.496 2.151 8.994 6.649 11.146 11.146v142.337h37.735v-186.913h-37.735v19.943c-6.649-6.649-13.293-13.293-22.289-17.792-6.648-4.496-15.642-6.649-22.289-6.649-8.994 0-15.642 2.151-19.944 8.994-4.496 4.496-6.648 13.293-6.648 24.44v155.827h2.344zM461.757 667.173c0 15.642 4.496 26.785 15.642 35.583 11.146 8.995 24.44 13.293 42.233 13.293 15.642 0 28.937-4.496 40.080-13.293s15.642-19.943 15.642-35.583v-95.607c0-15.642-4.496-28.937-15.642-37.735-8.994-8.994-24.44-13.293-40.080-13.293-17.792 0-31.087 4.496-40.080 13.293-11.146 8.995-15.642 22.289-15.642 37.734l-2.151 95.607zM357.156 776.272l28.937-102.452h2.151l26.785 102.452h44.577l-51.224-149.179v-104.603h-42.233v100.104l-51.224 153.676h42.233zM860.218 242.123c0-66.669-55.722-122.393-122.393-122.393h-427.399c-66.669 0-122.393 55.722-122.393 122.393v97.953c0 66.669 55.723 122.393 122.393 122.393h427.202c66.669 0 122.393-55.723 122.393-122.393v-97.953h0.195zM704.393 364.514c-15.642 0-26.785-4.496-37.735-13.293-8.994-8.994-15.642-22.289-15.642-35.583v-75.664c0-15.642 4.496-28.937 13.293-37.735 8.994-8.994 19.943-13.293 35.583-13.293 17.792 0 28.937 4.496 37.734 13.293 8.994 8.994 13.293 22.289 13.293 40.080v4.496h-35.583v-6.649c0-11.146-2.151-15.642-4.496-19.943-2.151-2.151-6.649-4.496-11.146-4.496s-8.994 2.151-11.146 4.496c-2.151 4.496-2.151 8.994-2.151 17.792v31.087h64.522v44.577c0 15.642-4.496 28.937-13.293 37.735-6.648 8.603-17.792 13.1-33.239 13.1zM717.687 297.843h-31.087v15.642c0 6.649 0 13.293 4.496 15.642 2.151 2.151 6.649 4.496 11.146 4.496s8.994-2.151 11.146-4.496 4.496-8.994 4.496-15.642l-0.196-15.642z" />
<glyph unicode="&#xe636;" glyph-name="recertifying-is-easy" d="M215 398.6c-27.4 22.4-29.6 63.4 1.6 87.4 24.4 18.8 55 20 85.8 24.6 20.8 3.2 81 3.8 82.4 25.2 3.2 45.4 3 100.6 7.8 145.8 3.4 32.8 16.8 63.6 41.6 85.8 23.6 21.4 53.6 24.4 83.6 14.2 18.6-6.2 31.4-25.6 30-44-3.2-39.2-1.6-78.4 9.2-116.2 11-38.8 23.8-77 36.8-115.2 2.4-7.4 6.2-16 17.2-16.6 26.6-1.6 53.2-3.8 79.8-5.6 6.2-0.4 10.4 0 14.2 7.4 8.6 17.2 25 26 43.4 25.8 37.8-0.2 59.8-5.8 81.6-10.4 7.4-1.6 12.6-6.4 10.2-15-2.2-7.8-8-11-16-9.4-19-3.8-40.4-3.6-40.4-3.6s-12-2-20.4-3.4c9.4-9.8 12.2-18.8 2.8-26-9.8-7.6-11.2-17.2-11.6-28.2-1.6-35.6-4.4-71.2-5-106.8-0.6-34.8 0.8-69.6 1.8-104.6 0.2-4.4 2.8-10.6 6.2-12.8 10.4-6.2 21.4-11.4 32.8-15.4 8.4-3 13-7.2 21.6-10 14-5.4 7.4-15 1.2-18.8s-27.6-23.6-65-22.6c-17.4 0.4-34.4 6.4-47.4 20.2-2.8 3-9.2 3.8-14 3.6-14.2-0.4-28.2-1.6-42.4-3-17.8-1.6-36-2.4-53.6-6-20.4-4.2-40-12.4-60.4-16.2-36.4-6.6-73-12.8-110-16.4-32.4-3.2-124.6-4.6-157-3.6-27.2 0.8-53.8 16.2-57.4 41.8-2.2 15.2-2.2 30.4-11.6 44-3.6 5-3.4 13-3.8 19.8-1 20.2 6.2 37.8 18.2 53.6 5.4 7 5.6 12-2.6 17.8-6.8 4.8-13.2 11.6-16.8 18.8-13.4 27.6-6 58.2 21.4 76.8 4.2 2.8 9 5 14.6 8-6.6 6-8.4 7.6-10.4 9.2zM699 267.8c-0.2 42-0.6 84.2-1 126.2-0.2 11.6-1.2 23.2-1 34.8 0.2 9.8-3.4 12.6-13 11.8-29.8-2.4-59.6-4.4-89.4-5.8-9.8-0.4-19.8 0.2-29.2 2.4-16.8 4-27.2 16.6-32.8 31.8-11.8 31.2-24 62.2-32.6 94.4-11.2 42-18.8 84.8-28 127.6-7.2-10.4-9-23.2-10-36.4-1.4-18-4-35.8-5.2-53.8-1.4-18.6-1.2-37.2-2.6-55.8-1.2-16.4-0.4-34-6-49-7.8-21.2-26.2-34-48.2-39.8-9-2.4-18.4-2.8-27.8-4-5-0.6-69.8-0.8-74.8-1.8-20.6-4-24.6-12.6-9-25.8 16.6-14.2 12.8-31.6 13.6-48.6 0.2-3-3.2-7.8-6.2-9.2-12.8-5.8-16.4-20.2-26.6-28.4-2.2-1.8-2.4-9.2-0.6-12.4 3-5.6 7.8-10.2 12.4-14.8 18-18.2 20.4-34.6 7.8-57.8-4-7.6-9.4-14.4-13.6-21.8-4.6-8-4.6-14.6 2.2-23 5.6-6.8 7.4-17.6 8.4-26.8 1.2-11.2 5.4-16.4 17-15.2 37 3.8 133.8 6.2 170.2 12.2 39.6 6.6 78.2 20 117.8 25.4 32.4 4.6 66 1.8 99 2.4 1.6 0 3.4-0.2 9.8-0.4-0.4 21.4-0.4 41.4-0.6 61.6z" />
</font>
</defs>
</svg>
